<svg width="597" height="449" viewBox="0 0 597 449" fill="none" xmlns="http://www.w3.org/2000/svg">
<path d="M591.708 230.342C583.46 211.847 567.726 195.019 561.308 175.137C550.406 141.37 567.84 104.18 560.802 69.3203C554.639 38.7941 527.997 14.0608 498.883 11.8387C474.68 9.99053 451.734 22.0447 427.719 25.1618C387.43 30.3904 348.058 10.3928 307.855 3.19598C271.666 -3.28267 234.012 0.836184 200.098 14.9815C178.038 24.1831 155.456 40.7894 152.234 65.9197C149.764 85.1828 159.45 105.224 154.719 123.962C151.163 138.046 139.963 148.507 127.764 155.008C115.565 161.506 102.098 164.836 89.3119 169.932C61.9136 180.855 36.913 201.084 24.5915 229.374C12.2701 257.663 14.8324 294.359 34.9676 317.558C44.5823 328.636 57.2926 336.028 67.9576 345.95C81.8126 358.843 81.5251 379.718 89.7034 395.983C98.1341 412.748 113.315 423.779 128.589 432.643C147.68 443.723 169.829 448.938 191.303 446.217C221.997 442.329 249.778 424.096 280.566 421.04C311.776 417.942 342.388 430.659 372.889 439.096C406.612 448.426 442.284 452.602 475.937 444.091C509.591 435.579 541.033 412.99 555.521 379.561C566.333 354.614 567.223 325.587 578.438 300.849C585.167 286.009 595.674 272.383 596.836 255.862C597.475 246.779 595.303 238.402 591.708 230.342Z" fill="white"/>
<path d="M485.167 116.744C469.536 110.798 483.629 103.842 493.439 101.066C501.376 98.8213 521.251 95.1601 513.184 81.6128C504.735 67.423 496.642 84.9487 489.92 86.9278C474.898 91.3504 490.53 72.5071 494.261 67.4824C499.374 60.5987 510.127 46.5344 496.848 44.1908C486.109 42.2954 474.986 57.2588 470.531 64.7162C467.355 70.0339 459.545 94.936 451.417 89.4145C445.263 85.2349 451.628 60.3017 436.939 78.1231C430.965 85.3699 431.929 97.0136 429.236 105.303C425.291 117.445 423.629 122.476 412.852 119.359C407.267 117.743 407.087 110.734 400.193 115.468C396.644 117.905 395.593 129.125 395.624 133.019C395.9 168.808 410.209 192.776 416.959 195.866C426.097 200.05 443.079 194.007 450.893 189.518C454.778 187.287 461.864 183.599 461.366 177.942C460.806 171.594 451.003 172.506 450.64 168.778C449.609 158.204 469.061 168.306 474.449 166.798C481.424 164.846 492.98 152.383 485.661 145.789C484.909 145.111 454.504 142.911 471.897 133.23C481.527 127.871 491.854 142.741 501.145 132.184C514.516 116.99 491.027 118.973 485.167 116.744Z" fill="url(#paint0_linear_1247_209)"/>
<path d="M482.574 122.373C475.857 119.538 468.917 116.979 461.604 116.357C466.749 109.929 472.139 103.563 476.053 96.4265C477.157 94.4136 473.867 93.0231 472.771 95.0224C472.293 95.8932 471.763 96.7383 471.246 97.5902C470.682 95.4086 471.358 92.151 471.562 90.4108C472.09 85.9167 473.782 81.8788 475.55 77.7573C476.455 75.6459 473.175 74.2392 472.268 76.3533C469.974 81.7007 468.165 86.8091 467.761 92.6532C467.563 95.526 467.392 98.6391 469.059 101.016C463.528 109.224 456.639 116.783 450.872 124.745C448.407 120.838 446.596 116.771 445.763 112.143C444.855 107.104 445.47 101.979 444.948 96.9057C444.713 94.6202 441.169 95.0602 441.405 97.3498C442.033 103.45 441.319 109.443 442.853 115.46C444.008 119.993 446.082 124.002 448.656 127.873C442.026 137.457 435.906 147.421 430.874 157.942C429.203 161.436 427.677 164.998 426.199 168.583C422.87 163.606 420.112 158.416 418.195 152.696C417.128 149.515 415.946 146.146 415.519 142.815C415.196 140.292 415.462 137.911 414.469 135.517C413.587 133.395 410.273 134.719 411.156 136.845C412.372 139.776 411.962 143.598 412.733 146.733C413.478 149.758 414.401 152.763 415.452 155.697C417.601 161.699 420.764 167.146 424.413 172.348C424.467 172.423 424.536 172.454 424.593 172.518C422.099 178.71 419.662 184.928 416.889 190.986C416.668 191.157 416.471 191.377 416.341 191.705C416.074 192.386 415.549 193.323 415.373 194.148C410.417 206.658 405.425 219.16 400.629 231.733C399.812 233.873 403.09 235.289 403.91 233.137C408.689 220.609 413.664 208.148 418.604 195.683C418.635 195.629 418.677 195.597 418.705 195.538C420.29 192.272 421.744 188.945 423.147 185.591C429.64 187.242 436.859 185.346 442.915 182.911C445.049 182.054 443.722 178.74 441.586 179.599C436.32 181.714 430.225 183.358 424.534 182.236C427.657 174.568 430.599 166.813 434.156 159.345C435.572 156.372 437.087 153.453 438.668 150.572C438.785 150.656 438.88 150.753 439.032 150.814C447.885 154.408 457.439 155.847 466.916 154.358C469.18 154.001 468.75 150.458 466.472 150.815C457.592 152.21 448.739 150.902 440.436 147.532C440.419 147.525 440.404 147.529 440.388 147.523C445.264 139.015 450.758 130.862 456.529 122.938C457.512 121.589 458.536 120.257 459.574 118.928C459.778 119.42 460.192 119.814 460.906 119.871C468.002 120.438 474.66 122.908 481.168 125.655C483.285 126.549 484.693 123.269 482.574 122.373Z" fill="#F46D6D"/>
<path d="M389.27 273.037C398.383 263.266 406.17 252.858 415.822 243.798C407.481 230.583 404.215 205.786 406.337 203.194C411.104 197.37 417.12 206.445 418.306 210.859C420.454 218.848 419.298 235.564 417.905 241.894C419.051 240.872 420.217 239.864 421.423 238.885C424.071 236.737 426.718 234.577 429.365 232.419C426.9 227.738 421.144 218.036 424.349 202.246C424.886 199.599 425.843 196.125 428.666 195.099C432.584 193.675 432.873 198.067 432.978 200.846C433.159 205.612 432.654 221.97 432.848 229.582C438.147 225.26 443.453 220.94 448.777 216.649C445.788 206.851 442.215 194.959 446.602 185.004C449.471 178.493 454.597 183.92 455.736 188.225C457.778 195.936 456.27 204.976 453.524 212.846C456.041 210.834 458.561 208.819 461.092 206.831C461.544 206.476 462.004 206.129 462.459 205.776C460.577 201.091 458.265 196.775 458.083 191.549C457.902 186.403 460.147 181.715 463.456 177.894C464.914 176.209 466.451 173.961 468.892 173.676C472.317 173.277 470.881 176.939 470.237 179.173C468.868 183.927 467.745 188.847 466.904 193.701C466.439 196.38 465.921 198.878 465.239 201.425C465.064 202.083 464.957 202.997 464.85 203.932C468.482 201.155 472.173 198.434 475.923 195.784C475.689 187.134 475.468 176.673 481.268 169.56C485.072 164.894 488.032 170.474 487.993 174.24C487.932 180.083 485.478 186.143 482.219 191.43C483.876 190.312 485.539 189.205 487.213 188.116C490.055 178.385 493.435 166.289 502.495 160.483C508.259 156.789 509.503 164.011 508.135 168.128C506.784 172.191 504.348 175.989 501.366 179.395C502.16 178.93 502.951 178.456 503.748 177.999C505.619 176.927 507.517 175.933 509.434 175.002C510.718 166.421 512.308 156.011 519.294 149.993C523.855 146.063 525.795 152.073 525.098 155.776C523.992 161.654 520.378 167.318 516.118 172.02C519.115 170.783 522.147 169.646 525.201 168.568C527.315 161.807 529.919 153.649 536.296 149.679C540.48 147.074 541.294 152.181 540.264 155.089C538.769 159.309 535.601 163.119 531.983 166.238C535.345 165.109 538.717 163.99 542.08 162.819C544.026 160.287 546.271 157.766 548.273 155.619C550.64 153.081 553.663 150.621 557.379 150.938C562.276 151.357 563.237 154.819 560.491 158.638C559.237 160.384 557.56 161.538 555.674 162.369C557.578 162.725 559.348 163.45 560.525 164.55C563.746 167.561 560.795 170.473 557.298 171.142C553.406 171.887 549.397 170.42 545.622 169.681C542.826 169.135 539.868 169.41 537.067 169.152C534.836 169.904 532.607 170.652 530.385 171.414C536.181 171.05 542.545 171.742 547.334 174.575C549.989 176.147 552.639 180.587 547.758 181.271C539.925 182.369 532.323 177.22 526.197 173.289L526.127 172.909C519.882 175.145 513.726 177.614 507.765 180.776C509.766 180.773 511.729 180.976 513.596 181.447C516.999 182.305 521.323 186.295 516.218 188.615C509.661 191.596 501.975 190.161 495.089 188.283C488.891 192.163 482.798 196.247 476.841 200.502C483.34 198.222 490.735 196.973 497.099 198.577C500.748 199.498 505.384 203.776 499.911 206.264C491.128 210.256 480.453 206.862 471.927 204.382L471.814 204.159C469.05 206.206 466.311 208.281 463.618 210.396C462.315 211.419 461.034 212.471 459.742 213.507C468.633 210.167 478.689 208.139 487.205 209.937C492.08 210.967 498.118 216.371 490.611 219.924C478.609 225.605 464.443 221.719 453.088 218.88C449.39 221.909 445.7 224.949 442.008 227.985C450.825 227.676 469.076 225.947 475.009 225.874C477.785 225.843 484.292 226.5 482.731 230.967C481.864 233.442 476.844 235.541 474.428 236.115C469.045 237.397 449.243 235.56 436.299 232.648C433.665 234.781 431.023 236.903 428.346 238.988C427.355 239.76 426.39 240.546 425.438 241.339C438.455 239.737 464.055 238.31 470.218 240.34C473.353 241.373 478.215 243.86 477.436 247.856C476.63 251.994 470.295 251.753 467.044 252.422C459.557 253.959 435.845 249.931 431.571 248.558C428.264 247.494 425.056 245.676 421.864 244.451C419.749 246.361 417.716 248.32 415.745 250.32C425.982 252.431 449.394 255.62 456.718 257.247C460.048 257.989 467.653 260.605 464.529 265.514C462.796 268.231 456.197 269.334 453.143 269.343C446.682 269.364 425.454 262.366 410.764 255.559C404.69 262.161 398.95 269.054 392.627 275.833C390.715 277.88 387.352 275.095 389.27 273.037Z" fill="url(#paint1_linear_1247_209)"/>
<path d="M129.407 105.165C145.037 99.2194 130.946 92.2628 121.134 89.4872C113.197 87.2422 93.3228 83.581 101.389 70.0337C109.839 55.8439 117.932 73.3696 124.654 75.3487C139.675 79.7713 124.043 60.928 120.312 55.9033C115.2 49.0196 104.447 34.9553 117.725 32.6117C128.465 30.7163 139.587 45.6797 144.042 53.1371C147.217 58.4534 155.027 83.3555 163.157 77.8353C169.31 73.6557 162.945 48.7226 177.634 66.5426C183.608 73.7894 182.644 85.4332 185.337 93.7222C189.282 105.864 190.944 110.896 201.721 107.778C207.306 106.164 207.487 99.1532 214.38 103.888C217.929 106.326 218.981 117.544 218.95 121.439C218.673 157.228 204.364 181.195 197.614 184.286C188.476 188.469 171.495 182.427 163.681 177.938C159.795 175.706 152.709 172.018 153.207 166.362C153.768 160.014 163.57 160.926 163.933 157.198C164.965 146.623 145.512 156.725 140.125 155.217C133.149 153.265 121.594 140.802 128.913 134.209C129.665 133.531 160.069 131.33 142.676 121.65C133.047 116.29 122.719 131.16 113.428 120.603C100.058 105.409 123.545 107.394 129.407 105.165Z" fill="url(#paint2_linear_1247_209)"/>
<path d="M131.999 110.794C138.715 107.959 145.655 105.4 152.968 104.777C147.824 98.35 142.433 91.9834 138.519 84.8473C137.415 82.8345 140.705 81.444 141.801 83.4434C142.279 84.3141 142.81 85.1592 143.327 86.011C143.891 83.8294 143.215 80.5719 143.009 78.8318C142.482 74.3376 140.789 70.2998 139.022 66.1782C138.116 64.0668 141.396 62.6601 142.303 64.7742C144.597 70.1215 146.406 75.2299 146.81 81.0741C147.008 83.9469 147.18 87.06 145.512 89.4374C151.043 97.6454 157.932 105.204 163.7 113.166C166.165 109.258 167.975 105.192 168.808 100.564C169.717 95.5232 169.101 90.3999 169.623 85.3266C169.858 83.0411 173.402 83.4812 173.166 85.7708C172.538 91.8714 173.252 97.864 171.719 103.881C170.563 108.416 168.489 112.422 165.915 116.294C172.545 125.878 178.666 135.842 183.697 146.363C185.368 149.857 186.894 153.419 188.372 157.004C191.701 152.027 194.459 146.837 196.376 141.117C197.443 137.937 198.625 134.566 199.052 131.236C199.375 128.713 199.109 126.332 200.102 123.938C200.984 121.816 204.298 123.14 203.417 125.266C202.2 128.197 202.611 132.02 201.84 135.154C201.095 138.179 200.173 141.184 199.122 144.118C196.973 150.12 193.81 155.567 190.161 160.769C190.107 160.846 190.038 160.875 189.981 160.939C192.475 167.131 194.912 173.349 197.684 179.407C197.905 179.578 198.103 179.798 198.233 180.126C198.5 180.807 199.025 181.744 199.201 182.568C204.156 195.079 209.149 207.581 213.945 220.154C214.762 222.295 211.484 223.71 210.663 221.558C205.884 209.03 200.91 196.571 195.97 184.103C195.939 184.051 195.897 184.018 195.869 183.959C194.284 180.693 192.83 177.366 191.427 174.012C184.934 175.663 177.715 173.766 171.659 171.332C169.525 170.475 170.852 167.161 172.986 168.02C178.253 170.135 184.348 171.779 190.038 170.657C186.916 162.989 183.974 155.234 180.417 147.765C179.002 144.794 177.486 141.875 175.905 138.993C175.787 139.077 175.693 139.174 175.54 139.235C166.687 142.828 157.133 144.268 147.656 142.779C145.392 142.422 145.823 138.878 148.1 139.236C156.981 140.631 165.834 139.323 174.136 135.953C174.154 135.946 174.169 135.95 174.185 135.943C169.309 127.436 163.814 119.283 158.043 111.357C157.06 110.009 156.037 108.676 154.999 107.348C154.794 107.839 154.381 108.233 153.666 108.29C146.571 108.856 139.913 111.328 133.404 114.075C131.289 114.969 129.879 111.689 131.999 110.794Z" fill="#F46D6D"/>
<path d="M225.302 261.458C216.189 251.687 208.403 241.278 198.75 232.219C207.092 219.003 210.357 194.207 208.235 191.615C203.468 185.791 197.453 194.865 196.266 199.28C194.118 207.271 195.274 223.985 196.667 230.315C195.521 229.293 194.356 228.285 193.149 227.306C190.5 225.158 187.854 222.998 185.207 220.839C187.672 216.159 193.428 206.456 190.224 190.667C189.686 188.02 188.729 184.546 185.906 183.52C181.989 182.096 181.7 186.487 181.594 189.267C181.413 194.032 181.918 210.39 181.724 218.003C176.425 213.68 171.12 209.36 165.795 205.07C168.784 195.272 172.358 183.38 167.97 173.425C165.101 166.914 159.975 172.339 158.836 176.644C156.796 184.356 158.304 193.395 161.05 201.266C158.531 199.253 156.013 197.239 153.482 195.25C153.03 194.895 152.569 194.548 152.114 194.196C153.996 189.51 156.309 185.194 156.491 179.968C156.672 174.822 154.427 170.135 151.118 166.313C149.66 164.628 148.122 162.38 145.682 162.095C142.257 161.696 143.693 165.358 144.337 167.593C145.706 172.346 146.829 177.267 147.67 182.12C148.135 184.8 148.653 187.297 149.335 189.845C149.51 190.502 149.617 191.416 149.724 192.352C146.092 189.575 142.401 186.853 138.651 184.203C138.884 175.554 139.106 165.092 133.306 157.979C129.502 153.314 126.541 158.892 126.58 162.66C126.641 168.503 129.096 174.563 132.354 179.849C130.698 178.732 129.035 177.625 127.359 176.535C124.518 166.804 121.137 154.708 112.077 148.902C106.313 145.208 105.07 152.431 106.437 156.547C107.788 160.61 110.224 164.408 113.206 167.814C112.412 167.35 111.621 166.876 110.825 166.418C108.954 165.345 107.055 164.353 105.138 163.42C103.855 154.839 102.264 144.429 95.278 138.411C90.7177 134.481 88.7778 140.491 89.4744 144.194C90.58 150.072 94.194 155.736 98.4546 160.438C95.4576 159.2 92.4255 158.064 89.3718 156.986C87.2577 150.225 84.6535 142.067 78.2761 138.098C74.0911 135.494 73.2784 140.601 74.3085 143.509C75.8029 147.729 78.9714 151.538 82.5894 154.657C79.2265 153.528 75.8556 152.409 72.4927 151.239C70.546 148.706 68.301 146.186 66.2989 144.038C63.9324 141.5 60.9097 139.04 57.1932 139.357C52.2967 139.776 51.3355 143.239 54.0814 147.058C55.3356 148.803 57.0123 149.958 58.8982 150.788C56.9947 151.144 55.2249 151.869 54.0477 152.969C50.8266 155.98 53.7777 158.892 57.2742 159.562C61.1662 160.307 65.1757 158.839 68.9503 158.101C71.7462 157.554 74.704 157.829 77.5053 157.573C79.7368 158.325 81.9657 159.073 84.1878 159.834C78.3922 159.471 72.027 160.161 67.2385 162.996C64.5831 164.567 61.933 169.007 66.8146 169.692C74.646 170.789 82.2492 165.641 88.3755 161.709L88.4443 161.33C94.6894 163.566 100.845 166.035 106.806 169.196C104.805 169.194 102.842 169.396 100.975 169.866C97.5717 170.725 93.2476 174.714 98.3533 177.035C104.91 180.015 112.596 178.58 119.482 176.702C125.68 180.582 131.773 184.666 137.73 188.921C131.231 186.641 123.836 185.392 117.472 186.998C113.823 187.917 109.187 192.195 114.66 194.684C123.443 198.676 134.118 195.283 142.644 192.803L142.758 192.58C145.521 194.626 148.26 196.701 150.953 198.817C152.256 199.84 153.537 200.892 154.829 201.927C145.938 198.586 135.882 196.56 127.366 198.358C122.49 199.388 116.451 204.792 123.96 208.345C135.962 214.026 150.129 210.138 161.483 207.3C165.181 210.33 168.871 213.37 172.563 216.406C163.746 216.097 145.495 214.367 139.562 214.295C136.788 214.264 130.279 214.921 131.84 219.388C132.707 221.863 137.727 223.962 140.143 224.536C145.526 225.82 165.328 223.982 178.272 221.069C180.906 223.202 183.548 225.324 186.225 227.408C187.216 228.181 188.182 228.966 189.134 229.76C176.117 228.158 150.517 226.731 144.355 228.761C141.22 229.794 136.357 232.281 137.136 236.277C137.942 240.414 144.279 240.174 147.528 240.842C155.016 242.38 178.727 238.352 183.001 236.979C186.309 235.915 189.516 234.096 192.709 232.872C194.823 234.782 196.856 236.741 198.827 238.74C188.59 240.852 165.178 244.04 157.855 245.667C154.524 246.41 146.92 249.026 150.043 253.935C151.777 256.652 158.376 257.755 161.429 257.763C167.89 257.785 189.118 250.786 203.807 243.98C209.881 250.581 215.621 257.474 221.944 264.254C223.857 266.301 227.22 263.516 225.302 261.458Z" fill="url(#paint3_linear_1247_209)"/>
<path d="M432.711 261.397C432.711 286.134 418.59 308.551 395.709 324.93C393.809 326.282 391.867 327.612 389.84 328.878C388.658 329.616 387.476 330.335 386.252 331.031C385.873 331.285 385.492 331.496 385.091 331.728C382.854 333.016 380.574 334.24 378.21 335.401C376.437 336.288 374.622 337.132 372.786 337.934C370.084 339.158 367.32 340.298 364.49 341.353C360.142 343.02 355.625 344.499 350.96 345.765C350.496 345.912 350.01 346.039 349.545 346.166C344.374 347.559 339.034 348.72 333.545 349.607C329.366 350.325 325.081 350.873 320.754 351.296C317.947 351.55 315.118 351.76 312.269 351.866C311.868 351.887 311.489 351.908 311.087 351.929C308.574 352.056 306.042 352.098 303.488 352.098H301.967C231.321 351.528 174.287 311.15 174.287 261.398C174.287 211.331 232.143 170.74 303.488 170.74C374.854 170.739 432.711 211.329 432.711 261.397Z" fill="#D9598B"/>
<path d="M388.698 261.405C388.698 277.717 379.387 292.498 364.3 303.298C363.047 304.189 361.767 305.065 360.431 305.901C359.652 306.388 358.871 306.86 358.064 307.321C357.813 307.488 357.563 307.627 357.299 307.78C355.823 308.629 354.321 309.436 352.761 310.202C351.592 310.786 350.395 311.342 349.184 311.872C347.402 312.679 345.579 313.431 343.714 314.126C340.846 315.225 337.868 316.2 334.791 317.035C334.485 317.133 334.165 317.216 333.859 317.3C330.449 318.219 326.928 318.983 323.308 319.569C320.553 320.043 317.727 320.405 314.874 320.683C313.023 320.85 311.157 320.99 309.278 321.058C309.013 321.072 308.763 321.087 308.499 321.1C306.842 321.184 305.172 321.211 303.488 321.211H302.486C255.903 320.836 218.296 294.21 218.296 261.406C218.296 228.392 256.446 201.628 303.488 201.628C350.55 201.627 388.698 228.39 388.698 261.405Z" fill="#EB7AA6"/>
<path d="M325.534 244.421L362.243 270.223L367.367 269.559L331.602 244.421H325.534Z" fill="#E0E7EE"/>
<path d="M322.184 275.227L358.893 301.029L364.016 300.364L328.252 275.227H322.184Z" fill="#E0E7EE"/>
<path d="M363.243 245.969L359.429 263.841L358.733 267.112L326.457 244.425L331.022 224.118L324.37 218.551L302.49 321.21H303.492C305.175 321.21 306.847 321.182 308.503 321.099C308.768 321.086 309.019 321.071 309.282 321.058L311.55 310.925L323.311 319.567C326.931 318.983 330.451 318.217 333.862 317.298C334.168 317.214 334.488 317.13 334.794 317.033L313.528 302.085L317.981 282.279L350.425 306.093L349.185 311.87C350.396 311.34 351.594 310.784 352.763 310.2C354.322 309.434 356.59 308.168 358.066 307.319L369.896 251.535L363.243 245.969ZM352.512 296.324L319.971 273.443L324.48 253.234L356.659 276.867L352.512 296.324Z" fill="white"/>
<path d="M375.227 251.536L364.301 303.298C363.048 304.189 361.768 305.065 360.432 305.901C359.653 306.388 358.873 306.86 358.065 307.321L369.895 251.537H375.227V251.536Z" fill="#E0E7EE"/>
<path d="M369.891 251.534L363.243 245.967H368.577L375.224 251.534H369.891Z" fill="#E0E7EE"/>
<path d="M331.017 224.111H336.353L329.705 218.544H324.37L331.017 224.111Z" fill="#E0E7EE"/>
<path d="M331.017 224.111H336.353L331.799 244.421H326.464L331.017 224.111Z" fill="#E0E7EE"/>
<mask id="mask0_1247_209" style="mask-type:luminance" maskUnits="userSpaceOnUse" x="216" y="129" width="179" height="193">
<path d="M390.869 259.432C386.998 275.827 381.377 291.55 365.998 302.707C364.721 303.627 363.415 304.532 362.053 305.394C361.258 305.898 360.464 306.387 359.641 306.86C359.385 307.033 359.13 307.176 358.86 307.334C357.356 308.212 355.824 309.045 354.235 309.836C353.043 310.439 351.823 311.014 350.589 311.561C348.773 312.396 346.914 313.172 345.013 313.89C342.091 315.025 339.054 316.032 335.92 316.895C335.608 316.996 335.281 317.081 334.969 317.168C331.493 318.117 327.903 318.908 324.215 319.511C321.406 320 318.526 320.374 315.617 320.662C313.73 320.834 311.829 320.977 309.913 321.05C309.643 321.065 309.388 321.079 309.118 321.094C307.429 321.18 305.727 321.208 304.011 321.208H302.989C255.503 320.821 219.088 293.262 217.168 259.431C212.898 184.151 263.595 129.99 311.549 129.99C359.519 129.992 409.196 181.796 390.869 259.432Z" fill="white"/>
</mask>
<g mask="url(#mask0_1247_209)">
<path d="M330.465 174.02C328.255 166.842 323.715 161.066 320.187 154.549C319.279 152.871 318.169 151.271 317.348 149.538C317.023 148.851 315.31 145.5 313.547 142.063C311.092 137.281 305.844 135.204 301.152 137.159C298.331 138.334 296.112 140.812 295.094 143.945C293.448 149.013 290.136 155.69 288.287 157.831C284.851 161.808 280.676 165.615 278.124 170.352C276.647 173.096 276.632 176.161 275.801 179.11C276.654 176.553 279.605 174.554 281.615 173.07C281.916 175.297 280.751 178.618 280.52 180.911C280.138 184.707 280.699 188.224 281.941 191.777C284.716 199.715 290.394 205.135 294.961 211.864C296.036 213.446 296.755 215.163 297.949 216.671C298.365 217.196 299.111 218.557 299.725 218.541C300.587 218.518 302.764 215.683 303.352 215.114C309.082 209.579 316.363 206.277 320.556 199.09C323.371 194.266 324.171 188.873 326.049 183.734C327.049 186.624 326.627 189.899 327.394 192.829C329.956 186.675 332.494 180.612 330.465 174.02Z" fill="#323BB4"/>
<path d="M342.183 282.27C342.181 282.268 342.179 282.265 342.177 282.262C341.046 280.664 339.959 279.268 338.967 278.076C336.668 274.539 335.499 270.976 336.121 267.373L304.6 267.192L289.584 265.082C289.773 265.757 289.951 266.433 290.136 267.108H290.117C290.117 267.108 288.948 275.092 296.171 292.684C305.679 340.72 305.499 390.25 298.124 442.621L308.472 442.94C321.575 386.195 322.276 335.522 317.91 287.778L318.506 287.643C347.29 318.025 336.175 348.489 318.708 382.568L326.891 389.264C369.823 336.573 353.849 298.769 342.183 282.27Z" fill="url(#paint4_linear_1247_209)"/>
<path d="M324.781 184.947C322.759 186.432 322.69 189.083 323.029 191.146C323.261 192.558 323.743 193.906 324.379 195.187C326.501 199.462 334.374 214.866 340.542 220.972C343.253 223.655 347.414 224.164 350.69 222.21C357.944 217.884 370.075 210.33 373.338 206.32C372.898 205.741 373.055 205.923 372.461 205.177C371.867 204.429 370.629 202.695 369.816 201.814C365.238 205.49 347.495 208.73 347.495 208.73C347.495 208.73 337.086 193.145 334.901 186.975C333.599 183.527 329.919 181.175 324.781 184.947Z" fill="url(#paint5_linear_1247_209)"/>
<path d="M373.335 206.303C379.313 203.099 384.188 199.18 385.553 192.134C385.792 190.897 383.479 189.488 381.616 190.761C379.753 192.034 377.015 195.131 376.011 197.603C375.753 196.685 376.197 195.054 375.893 194.232C375.59 193.41 375.393 192.214 373.881 193.534C372.367 194.854 370.449 199.281 369.882 201.738C370.977 203.333 372.208 204.729 373.335 206.303Z" fill="#FAB9B5"/>
<path d="M304.795 183.963C306.662 185.64 306.469 188.284 305.93 190.305C305.56 191.688 304.948 192.981 304.188 194.195C301.656 198.241 292.307 212.796 285.569 218.268C282.607 220.674 278.417 220.77 275.348 218.503C268.554 213.486 257.225 204.776 254.372 200.465C254.868 199.932 254.693 200.098 255.358 199.414C256.022 198.728 257.424 197.126 258.321 196.326C262.515 200.434 279.855 205.402 279.855 205.402C279.855 205.402 291.744 190.916 294.525 184.99C296.157 181.683 300.051 179.705 304.795 183.963Z" fill="url(#paint6_linear_1247_209)"/>
<path d="M254.376 200.447C248.741 196.671 244.275 192.291 243.61 185.146C243.492 183.892 245.933 182.717 247.662 184.166C249.392 185.615 251.811 188.966 252.568 191.526C252.915 190.638 252.634 188.97 253.016 188.182C253.4 187.393 253.713 186.223 255.089 187.685C256.464 189.147 257.938 193.741 258.261 196.241C257.015 197.722 255.653 198.991 254.376 200.447Z" fill="#FAB9B5"/>
<path d="M337.131 270.293C333.321 272.887 329.12 274.481 324.637 275.302C312.5 277.525 298.501 274.095 285.994 269.197C285.994 269.197 288.139 261.398 291.391 254.274C295.074 246.131 299.467 238.201 299.018 229.035C298.808 224.762 297.446 220.312 295.857 216.412C294.552 213.246 294.09 210.021 294.638 206.626C295.042 204.104 295.825 201.642 296.327 199.144C297.115 194.92 302.305 182.188 302.305 182.188L305.16 183.549L308.191 184.979C308.794 184.908 310.116 184.493 310.405 183.907C310.449 183.828 310.472 183.75 310.478 183.65L310.386 181.864L319.845 181.99L319.993 183.477C320.118 184.584 319.936 185.436 321.114 185.494C322.032 185.539 323.168 185.255 324.246 184.888C326.018 184.275 327.64 183.434 327.859 183.445C327.918 183.448 334.512 206.846 333.418 212.777C332.157 219.679 328.624 224.788 327.909 231.997C327.681 234.206 328.105 237.769 328.823 239.866C333.182 252.967 337.131 270.293 337.131 270.293Z" fill="url(#paint7_linear_1247_209)"/>
<path d="M314.882 201.536C314.882 201.536 304.46 201.863 305.162 183.547L308.193 184.977C308.796 184.907 310.118 184.491 310.407 183.905C310.451 183.827 310.474 183.748 310.48 183.648L310.388 181.862L319.847 181.988L319.994 183.476C320.12 184.583 319.938 185.434 321.116 185.492C322.034 185.537 323.169 185.254 324.248 184.886C325.328 193.005 321.477 201.32 314.882 201.536Z" fill="#FAB9B5"/>
<path d="M310.479 183.648C314.7 184.669 317.663 183.891 319.836 181.98L319.324 174.819L309.85 177.006L310.479 183.648Z" fill="#F7ADAB"/>
<path d="M330.663 157.604C330.024 157.545 329.295 157.775 328.581 158.188C327.666 153.928 325.428 149.386 322.655 146.254C321.492 144.7 320.153 143.683 318.691 143.068C317.901 142.68 317.101 142.418 316.299 142.343C315.748 142.293 315.204 142.27 314.667 142.274C314.129 142.263 313.585 142.278 313.033 142.321C312.23 142.385 311.427 142.637 310.633 143.014C309.164 143.609 307.814 144.608 306.634 146.146C303.826 149.24 301.537 153.753 300.573 158C299.863 157.577 299.136 157.339 298.496 157.39C296.354 157.56 295.636 160.912 296.211 163.459C296.94 166.69 299.396 167.717 301.676 168.375C302.71 170.516 304.177 172.616 305.876 174.376C307.651 176.471 309.948 178.031 312.576 178.679C312.653 178.7 312.731 178.717 312.808 178.735C312.96 178.77 313.109 178.817 313.264 178.844C313.368 178.863 313.475 178.863 313.58 178.876C313.669 178.887 313.757 178.895 313.846 178.903C314.05 178.922 314.254 178.936 314.459 178.936C314.664 178.939 314.868 178.926 315.072 178.912C315.159 178.903 315.249 178.898 315.336 178.887C315.442 178.875 315.548 178.876 315.652 178.859C315.808 178.833 315.956 178.787 316.11 178.755C316.187 178.737 316.265 178.721 316.342 178.702C318.977 178.089 321.293 176.558 323.092 174.486C324.809 172.75 326.301 170.67 327.358 168.544C329.645 167.916 332.113 166.922 332.878 163.701C333.483 161.163 332.803 157.803 330.663 157.604Z" fill="#FAB9B5"/>
<path d="M308.251 162.669C308.295 163.386 308.916 163.932 309.637 163.889C310.358 163.846 310.906 163.229 310.86 162.511C310.816 161.793 310.195 161.247 309.474 161.29C308.754 161.335 308.206 161.951 308.251 162.669Z" fill="#323BB4"/>
<path d="M318.856 162.739C318.902 163.456 319.522 164.003 320.243 163.96C320.963 163.916 321.512 163.299 321.466 162.581C321.421 161.863 320.8 161.318 320.079 161.361C319.36 161.405 318.812 162.022 318.856 162.739Z" fill="#323BB4"/>
<path d="M306.953 160.209C306.94 160.205 306.927 160.2 306.914 160.194C306.718 160.109 306.63 159.884 306.717 159.691C307.747 157.39 309.856 157.488 310.834 157.848C311.033 157.924 311.131 158.144 311.057 158.34C310.983 158.538 310.782 158.641 310.56 158.562C310.493 158.537 308.412 157.794 307.424 160C307.343 160.181 307.138 160.269 306.953 160.209Z" fill="#323BB4"/>
<path d="M318.169 157.082C318.162 157.071 318.156 157.058 318.149 157.046C318.053 156.857 318.129 156.627 318.319 156.533C320.592 155.404 322.161 156.801 322.686 157.696C322.792 157.879 322.727 158.111 322.543 158.215C322.358 158.322 322.137 158.274 322.015 158.074C321.98 158.012 320.848 156.133 318.667 157.216C318.49 157.305 318.276 157.244 318.169 157.082Z" fill="#323BB4"/>
<path d="M310.311 169.832C310.301 169.817 310.293 169.802 310.285 169.787C310.168 169.557 310.261 169.274 310.494 169.158C313.285 167.772 315.211 169.489 315.855 170.585C315.985 170.809 315.905 171.094 315.68 171.222C315.453 171.352 315.182 171.295 315.032 171.051C314.989 170.974 313.598 168.667 310.922 169.997C310.705 170.105 310.44 170.032 310.311 169.832Z" fill="#323BB4"/>
<path d="M315.913 168.057C315.706 168.055 315.541 167.891 315.54 167.685C315.541 167.481 315.707 167.315 315.914 167.315C315.921 167.315 316.635 167.302 316.82 166.923C316.906 166.747 316.991 166.203 315.96 164.915C315.832 164.754 315.86 164.522 316.022 164.395C316.184 164.27 316.419 164.297 316.548 164.456C317.514 165.663 317.824 166.576 317.495 167.248C317.099 168.051 315.964 168.058 315.915 168.057H315.913Z" fill="#323BB4"/>
<path d="M329.759 149.58C328.765 145.196 325.37 141.172 320.725 139.594C316.167 138.045 310.299 138.367 306.145 140.755C300.893 143.773 297.035 151.298 299.735 157.346C300.599 159.282 301.24 162.133 302.775 163.645C303.497 161.426 303.086 159.018 303.997 156.917C305.625 156.667 307.29 156.115 308.797 155.589C311.094 154.788 313.466 153.295 315.322 151.721C316.816 150.454 317.806 149.107 318.92 147.555C318.041 149.445 319.402 152.987 320.71 154.396C321.853 155.626 323.603 156.06 324.757 157.35C325.748 158.457 326.021 159.815 326.079 161.272C326.126 162.469 325.972 163.66 325.639 164.777C325.752 164.395 326.524 163.811 326.777 163.455C327.166 162.904 327.495 162.31 327.785 161.701C328.377 160.461 328.819 159.12 329.115 157.778C329.651 155.324 330.295 151.949 329.759 149.58Z" fill="#323BB4"/>
</g>
<path d="M568.682 305.628L594.784 223.862L532.617 218.603L434.298 295.396L425.066 318.752L515.047 330.06L508.738 349.975L506.195 357.958L551.675 362.287L560.65 335.999L582.104 337.1L592.056 308.341L576.881 306.585L568.682 305.628ZM529.961 281.237L523.7 300.063L508.881 298.311L484.728 295.45L540.158 250.571L529.961 281.237Z" fill="#D9598B"/>
<path d="M425.067 318.752L426.893 339.686L508.739 349.977L515.048 330.061L425.067 318.752ZM484.727 295.45L508.879 298.311L529.96 281.237L540.155 250.571L484.727 295.45ZM582.105 337.102L560.651 336L551.676 362.289L506.196 357.959L508.021 378.892L553.501 383.222L562.476 356.933L583.93 358.035L593.882 329.277L592.057 308.344L582.105 337.102ZM568.682 305.628L576.882 306.586L596.609 244.795L594.784 223.862L568.682 305.628Z" fill="#EB7AA6"/>
<path d="M142.361 294.394L162.765 211.024L100.383 210.062L7.59194 293.452L-0.00585938 317.389L90.54 322.466L85.6192 342.769L83.632 350.908L129.303 352.092L136.444 325.247L157.924 324.868L165.87 295.492L150.61 294.786L142.361 294.394ZM102.051 272.732L97.1023 291.944L82.1983 291.218L57.9051 290.03L110.108 241.435L102.051 272.732Z" fill="#D9598B"/>
<path d="M-0.00585938 317.39L3.25844 338.148L85.6192 342.77L90.54 322.468L-0.00585938 317.39ZM57.9051 290.03L82.1983 291.218L102.051 272.731L110.108 241.435L57.9051 290.03ZM157.923 324.868L136.443 325.247L129.301 352.092L83.6307 350.908L86.8936 371.664L132.564 372.848L139.706 346.004L161.185 345.624L169.132 316.248L165.867 295.491L157.923 324.868ZM142.361 294.394L150.608 294.785L166.029 231.78L162.766 211.022L142.361 294.394Z" fill="#EB7AA6"/>
<defs>
<linearGradient id="paint0_linear_1247_209" x1="395.624" y1="120.65" x2="515.074" y2="120.65" gradientUnits="userSpaceOnUse">
<stop stop-color="#FFAE2A"/>
<stop offset="0.3827" stop-color="#FFCC16"/>
<stop offset="0.7627" stop-color="#FFE306"/>
<stop offset="1" stop-color="#FFEC00"/>
</linearGradient>
<linearGradient id="paint1_linear_1247_209" x1="388.699" y1="212.628" x2="562.001" y2="212.628" gradientUnits="userSpaceOnUse">
<stop offset="0.0045" stop-color="#008DA2"/>
<stop offset="0.4104" stop-color="#1BABC0"/>
<stop offset="1" stop-color="#47DCF2"/>
</linearGradient>
<linearGradient id="paint2_linear_1247_209" x1="193.862" y1="166.393" x2="111.962" y2="18.7934" gradientUnits="userSpaceOnUse">
<stop stop-color="#FFAE2A"/>
<stop offset="0.3827" stop-color="#FFCC16"/>
<stop offset="0.7627" stop-color="#FFE306"/>
<stop offset="1" stop-color="#FFEC00"/>
</linearGradient>
<linearGradient id="paint3_linear_1247_209" x1="52.5721" y1="201.048" x2="225.874" y2="201.048" gradientUnits="userSpaceOnUse">
<stop offset="0.0045" stop-color="#008DA2"/>
<stop offset="0.4104" stop-color="#1BABC0"/>
<stop offset="1" stop-color="#47DCF2"/>
</linearGradient>
<linearGradient id="paint4_linear_1247_209" x1="322.298" y1="369.625" x2="322.298" y2="255.623" gradientUnits="userSpaceOnUse">
<stop offset="0.0013" stop-color="#FF2C6E"/>
<stop offset="0.1454" stop-color="#F7296B"/>
<stop offset="0.365" stop-color="#E22261"/>
<stop offset="0.6328" stop-color="#C01552"/>
<stop offset="0.936" stop-color="#90043D"/>
<stop offset="1" stop-color="#850038"/>
</linearGradient>
<linearGradient id="paint5_linear_1247_209" x1="348.106" y1="258.024" x2="348.106" y2="162.608" gradientUnits="userSpaceOnUse">
<stop stop-color="#FFAE2A"/>
<stop offset="0.3827" stop-color="#FFCC16"/>
<stop offset="0.7627" stop-color="#FFE306"/>
<stop offset="1" stop-color="#FFEC00"/>
</linearGradient>
<linearGradient id="paint6_linear_1247_209" x1="280.337" y1="258.025" x2="280.337" y2="162.608" gradientUnits="userSpaceOnUse">
<stop stop-color="#FFAE2A"/>
<stop offset="0.3827" stop-color="#FFCC16"/>
<stop offset="0.7627" stop-color="#FFE306"/>
<stop offset="1" stop-color="#FFEC00"/>
</linearGradient>
<linearGradient id="paint7_linear_1247_209" x1="311.563" y1="258.025" x2="311.563" y2="162.608" gradientUnits="userSpaceOnUse">
<stop stop-color="#FFAE2A"/>
<stop offset="0.3827" stop-color="#FFCC16"/>
<stop offset="0.7627" stop-color="#FFE306"/>
<stop offset="1" stop-color="#FFEC00"/>
</linearGradient>
</defs>
</svg>
