<svg width="13" height="17" viewBox="0 0 13 17" fill="none" xmlns="http://www.w3.org/2000/svg">
<path d="M2.42712 5.57819C2.35432 6.39006 2.30323 7.82685 2.76175 8.43843C2.76175 8.43843 2.5459 6.86009 4.48088 4.87982C5.25998 4.08264 5.44006 2.99837 5.16802 2.18516C5.01347 1.72448 4.73121 1.34391 4.48599 1.07819C4.34294 0.921955 4.45278 0.66424 4.66096 0.673587C5.9203 0.732341 7.96128 1.09822 8.82851 3.37359C9.20912 4.3724 9.23722 5.4046 9.05585 6.45415C8.94091 7.12448 8.5322 8.61469 9.46456 8.79762C10.13 8.92849 10.4518 8.37567 10.5962 7.97774C10.6562 7.81217 10.8644 7.77077 10.9768 7.90297C12.1007 9.23961 12.1965 10.8139 11.9641 12.1693C11.5145 14.7892 8.97667 16.696 6.45545 16.696C3.30584 16.696 0.798669 14.8119 0.148568 11.4015C-0.113261 10.0248 0.0195694 7.30074 2.05034 5.37789C2.20105 5.23368 2.44755 5.36187 2.42712 5.57819Z" fill="url(#paint0_radial_1184_97)"/>
<path d="M7.60633 10.4771C6.44534 8.91476 6.96517 7.13212 7.24999 6.42174C7.2883 6.32826 7.18613 6.24013 7.10566 6.29755C6.60627 6.65275 5.58322 7.48865 5.10682 8.66506C4.46183 10.2554 4.50781 11.0339 4.8897 11.9846C5.11959 12.5575 4.85266 12.679 4.71855 12.7004C4.58827 12.7217 4.46822 12.6309 4.37242 12.5361C4.09685 12.2595 3.90047 11.9081 3.80534 11.5213C3.78491 11.4385 3.68145 11.4158 3.63419 11.4839C3.27657 12.0007 3.09138 12.8299 3.08244 13.4161C3.05434 15.2281 4.4861 16.697 6.218 16.697C8.40076 16.697 9.99089 14.1732 8.73667 12.0634C8.37266 11.4492 8.03037 11.0473 7.60633 10.4771Z" fill="url(#paint1_radial_1184_97)"/>
<defs>
<radialGradient id="paint0_radial_1184_97" cx="0" cy="0" r="1" gradientUnits="userSpaceOnUse" gradientTransform="translate(5.83163 16.7375) rotate(-179.74) scale(9.01556 15.4656)">
<stop offset="0.314" stop-color="#FF9800"/>
<stop offset="0.662" stop-color="#FF6D00"/>
<stop offset="0.972" stop-color="#F44336"/>
</radialGradient>
<radialGradient id="paint1_radial_1184_97" cx="0" cy="0" r="1" gradientUnits="userSpaceOnUse" gradientTransform="translate(6.33805 7.35757) rotate(90.5535) scale(9.86209 7.0991)">
<stop offset="0.214" stop-color="#FFF176"/>
<stop offset="0.328" stop-color="#FFF27D"/>
<stop offset="0.487" stop-color="#FFF48F"/>
<stop offset="0.672" stop-color="#FFF7AD"/>
<stop offset="0.793" stop-color="#FFF9C4"/>
<stop offset="0.822" stop-color="#FFF8BD" stop-opacity="0.804"/>
<stop offset="0.863" stop-color="#FFF6AB" stop-opacity="0.529"/>
<stop offset="0.91" stop-color="#FFF38D" stop-opacity="0.209"/>
<stop offset="0.941" stop-color="#FFF176" stop-opacity="0"/>
</radialGradient>
</defs>
</svg>
