<svg width="594" height="762" viewBox="0 0 594 762" fill="none" xmlns="http://www.w3.org/2000/svg">
<g opacity="0.7">
<path opacity="0.82" d="M532.53 468.969L467.71 531.13C433.634 563.808 379.519 562.675 346.84 528.599V528.599L411.66 466.438C445.736 433.759 499.852 434.892 532.53 468.969V468.969Z" fill="url(#paint0_linear_1166_335)"/>
<path d="M350.811 533.152C359.369 531.105 371.65 527.652 384.587 523.151M514.989 472.868C502.937 471.888 480.619 472.498 462.401 479.2M428.624 503.068C433.845 499.707 438.262 496.18 441.451 492.535C446.688 486.55 454.121 482.246 462.401 479.2M428.624 503.068H474.372M428.624 503.068C421.949 507.364 413.959 511.388 405.537 515.038M405.537 515.038L420.501 472.868M405.537 515.038C398.681 518.009 391.539 520.731 384.587 523.151M384.587 523.151L428.624 541.276M462.401 479.2L482.068 456.621" stroke="url(#paint1_linear_1166_335)" stroke-width="2"/>
<path d="M418.11 355.931V355.931C429.571 450.827 361.932 537.046 267.036 548.507V548.507V548.507C255.576 453.61 323.214 367.391 418.11 355.931V355.931Z" fill="url(#paint2_linear_1166_335)"/>
<path d="M270.004 544.696C276.438 537.509 283.749 529.261 291.59 520.319M416.225 359.14C415.007 369.807 388.082 405.535 355.845 444.818M342.124 461.378C351.548 461.499 376.36 457.594 400.221 441.003M342.124 461.378C346.764 455.828 351.356 450.289 355.845 444.818M342.124 461.378C337.147 467.332 332.114 473.299 327.094 479.206M355.845 444.818C351.723 436.998 345.224 413.352 352.208 381.334M309.637 499.581C319.341 497.034 342.169 493.468 355.845 499.581M309.637 499.581C315.366 492.947 321.221 486.117 327.094 479.206M309.637 499.581C303.427 506.773 297.365 513.734 291.59 520.319M327.094 479.206C325.756 464.895 320.393 433.072 309.637 420.265M291.59 520.319C295.391 502.128 300.712 462.833 291.59 451.191" stroke="#8E5948"/>
<path d="M270.004 544.696C276.438 537.509 283.749 529.261 291.59 520.319M416.225 359.14C415.007 369.807 388.082 405.535 355.845 444.818M342.124 461.378C351.548 461.499 376.36 457.594 400.221 441.003M342.124 461.378C346.764 455.828 351.356 450.289 355.845 444.818M342.124 461.378C337.147 467.332 332.114 473.299 327.094 479.206M355.845 444.818C351.723 436.998 345.224 413.352 352.208 381.334M309.637 499.581C319.341 497.034 342.169 493.468 355.845 499.581M309.637 499.581C315.366 492.947 321.221 486.117 327.094 479.206M309.637 499.581C303.427 506.773 297.365 513.734 291.59 520.319M327.094 479.206C325.756 464.895 320.393 433.072 309.637 420.265M291.59 520.319C295.391 502.128 300.712 462.833 291.59 451.191" stroke="#8E5948"/>
<path opacity="0.8" d="M450.542 131.599V131.599C464.463 246.867 382.305 351.595 267.036 365.516V365.516V365.516C253.116 250.248 335.274 145.52 450.542 131.599V131.599Z" fill="url(#paint3_linear_1166_335)"/>
<path opacity="0.9" d="M88.5165 225.101V225.101C194.82 231.475 275.829 322.817 269.455 429.121V429.121V429.121C163.152 422.747 82.1427 331.404 88.5165 225.101V225.101Z" fill="url(#paint4_linear_1166_335)"/>
<path opacity="0.8" d="M265.301 423.7C258.501 413.094 249.744 400.009 239.907 386.076M93.4266 261.659C100.267 265.935 102.78 267.725 123.783 274.366M186.471 317.668C167.367 296.33 148.8 282.839 137.037 278.761C132.045 277.031 127.655 275.591 123.783 274.366M186.471 317.668C194.256 302.276 200.741 278.761 186.471 261.659M186.471 317.668C193.797 325.851 201.284 334.847 208.675 344.176M208.675 344.176C194.344 346.314 156.875 345.972 121.645 327.502M208.675 344.176C213.233 349.93 217.755 355.811 222.179 361.706M222.179 361.706C213.18 374.675 189.368 398.475 166.11 389.924M222.179 361.706C228.331 369.903 234.294 378.127 239.907 386.076M123.783 274.366C114.376 264.43 95.9919 242.249 97.7021 233.014M239.907 386.076C231.468 360.708 217.123 309.545 227.249 307.835" stroke="#8E5948"/>
<path d="M270.004 361.278C277.567 352.832 286.161 343.14 295.378 332.632M441.878 143.229C440.446 155.763 408.797 197.748 370.905 243.91M354.777 263.37C365.854 263.512 395.019 258.923 423.066 239.427M354.777 263.37C360.231 256.848 365.629 250.338 370.905 243.91M354.777 263.37C348.926 270.366 343.01 277.378 337.11 284.319M370.905 243.91C366.06 234.72 358.421 206.933 366.63 169.309M316.59 308.262C327.997 305.269 354.829 301.079 370.905 308.262M316.59 308.262C323.324 300.466 330.207 292.441 337.11 284.319M316.59 308.262C309.29 316.713 302.165 324.894 295.378 332.632M337.11 284.319C335.538 267.503 329.233 230.106 316.59 215.057M295.378 332.632C299.845 311.255 306.099 265.08 295.378 251.398" stroke="#8E5948"/>
<path d="M270.004 361.278C277.567 352.832 286.161 343.14 295.378 332.632M441.878 143.229C440.446 155.763 408.797 197.748 370.905 243.91M354.777 263.37C365.854 263.512 395.019 258.923 423.066 239.427M354.777 263.37C360.231 256.848 365.629 250.338 370.905 243.91M354.777 263.37C348.926 270.366 343.01 277.378 337.11 284.319M370.905 243.91C366.06 234.72 358.421 206.933 366.63 169.309M316.59 308.262C327.997 305.269 354.829 301.079 370.905 308.262M316.59 308.262C323.324 300.466 330.207 292.441 337.11 284.319M316.59 308.262C309.29 316.713 302.165 324.894 295.378 332.632M337.11 284.319C335.538 267.503 329.233 230.106 316.59 215.057M295.378 332.632C299.845 311.255 306.099 265.08 295.378 251.398" stroke="#8E5948"/>
<path d="M145.378 335.153L172.985 341.793C237.61 357.337 277.399 422.326 261.855 486.951V486.951L234.248 480.311C169.623 464.767 129.834 399.778 145.378 335.153V335.153Z" fill="url(#paint5_linear_1166_335)"/>
<path d="M255.467 483.557C246.492 470.913 238.912 459.715 232.411 449.781M169.958 370.257C190.553 377.544 195.416 390.937 220.393 430.968M220.393 430.968C223.523 423.13 227.906 402.237 220.393 381.373M220.393 430.968C223.955 436.677 227.927 442.928 232.411 449.781M232.411 449.781C211.593 448.07 169.958 440.717 169.958 424.983" stroke="#C4A281" stroke-width="2"/>
<path opacity="0.8" d="M15.8333 335.408L21.7651 335.764C167.608 344.508 278.748 469.826 270.004 615.669V615.669L264.072 615.314C118.229 606.569 7.08879 481.251 15.8333 335.408V335.408Z" fill="url(#paint6_linear_1166_335)"/>
<path d="M263.591 611.821C248.976 588.769 226.619 556.169 200.14 521.609M19.0331 339.473C48.493 355.652 96.3081 402.662 127.203 435.254M148.664 458.759C128.256 445.933 76.9231 418.484 34.8524 411.301M148.664 458.759C141.602 450.749 134.432 442.881 127.203 435.254M148.664 458.759C160.385 472.053 171.811 485.741 182.729 499.376M127.203 435.254C121.787 428.41 109.502 405.829 103.688 370.257M200.14 521.609C184.236 516.621 144.647 511.604 113.521 531.442M200.14 521.609C194.511 514.262 188.696 506.827 182.729 499.376M182.729 499.376C172.22 485.695 154.353 448.925 166.965 411.301" stroke="#537374" stroke-width="2"/>
<path opacity="0.9" d="M91.2889 611.18V611.18C166.727 581.546 251.904 618.677 281.538 694.115V694.115V694.115C206.1 723.749 120.923 686.618 91.2889 611.18V611.18Z" fill="url(#paint7_linear_1166_335)"/>
<path d="M272.569 688.352L232.807 671.373M114.376 620.8L212.713 662.792M212.713 662.792H139.174M212.713 662.792L232.807 671.373M232.807 671.373L194.756 620.8" stroke="#3E5859" stroke-width="2"/>
<path opacity="0.8" d="M99.6328 481.63V481.63C205.936 488.004 286.945 579.347 280.571 685.65V685.65V685.65C174.268 679.276 93.2591 587.933 99.6328 481.63V481.63Z" fill="#435758"/>
<path d="M111.384 492.535C133.486 511.912 169.141 545.237 202.823 581.038M279.41 678.519C267.803 657.053 247.988 631.48 225.423 605.836M225.423 605.836C212.635 581.608 187.658 531.186 190.052 523.319M225.423 605.836C218.117 597.532 210.521 589.22 202.823 581.038M202.823 581.038C186.595 574.91 149.179 561.798 129.341 558.378" stroke="#3E5859" stroke-width="2"/>
<path opacity="0.8" d="M282.952 467.54V467.54C319.638 474.579 343.671 510.024 336.632 546.71L331.082 575.631V575.631C294.397 568.592 270.364 533.147 277.403 496.461L282.952 467.54Z" fill="#435758"/>
<path d="M324.303 569.067L313.56 540.421M292.236 483.557L302.898 511.989M313.56 540.421L324.303 505.362M313.56 540.421L302.898 511.989M302.898 511.989L278.555 493.39" stroke="#3A5355" stroke-width="2"/>
<path opacity="0.9" d="M281.344 349.09V349.09C336.34 359.642 372.368 412.78 361.816 467.775L359.158 481.63V481.63C304.162 471.077 268.133 417.94 278.686 362.944L281.344 349.09Z" fill="#435758"/>
<path opacity="0.9" d="M352.948 471.586L345.733 459.08M295.229 371.539L324.089 421.562M324.089 421.562L327.188 401.468M324.089 421.562L331.304 434.068M330.288 381.373L327.188 401.468M338.518 446.574V399.33M338.518 446.574L331.304 434.068M338.518 446.574L345.733 459.08M327.188 401.468L313.186 366.409M331.304 434.068L313.266 421.616M295.229 409.164L313.266 421.616M313.266 421.616L303.353 434.068M345.733 459.08L313.266 446.574" stroke="#385152" stroke-width="2"/>
<path opacity="0.8" d="M433.266 229.742C360.911 268.507 376.366 368.07 391.774 412.605C404.332 409.245 412.776 408.195 427.747 405.92C458.708 401.214 481.284 386.494 488.702 379.722C493.805 372.909 509.706 356.869 532.495 347.223C555.283 337.576 565.049 312.59 567.084 301.303C546.256 295.101 508.263 300.646 491.87 304.194C504.594 289.849 546.909 292.646 566.476 295.837C573.546 288.278 568.159 266.422 563.865 263.923C560.431 261.924 537.533 271.147 526.513 276.009C526.146 271.99 537.169 264.941 542.726 261.919C548.926 259.585 559.838 251.817 553.889 239.421C547.939 227.026 527.437 224.084 517.93 224.162C510.638 236.48 500.241 238.995 495.954 238.712C502.217 237.393 509.07 226.406 511.713 221.078C500.847 224.54 492.187 215.078 489.216 209.915C478.153 216.599 470.61 263.027 467.123 282.693C464.334 298.426 455.974 309.378 452.142 312.888C455.672 307.556 460.246 288.872 462.091 280.196C455.551 268.098 479.768 213.343 478.439 213.79C477.376 214.148 447.881 224.574 433.266 229.742Z" fill="url(#paint8_linear_1166_335)"/>
<path d="M392.216 412.456C398.672 401.188 408.312 385.368 419.075 369.341M473.619 307.131C461.734 312.846 445.294 332.274 429.73 353.969M429.73 353.969C454.347 350.198 508.89 338.944 530.125 324.1M429.73 353.969C426.108 359.018 422.533 364.19 419.075 369.341M419.075 369.341C412.209 341.341 408.499 276.591 448.59 241.591" stroke="url(#paint9_linear_1166_335)" stroke-width="2"/>
<path d="M445.95 326.857C359.414 412.025 303.862 651.936 286.902 761.246H304.004C344.023 493.772 415.309 360.206 445.95 326.857Z" fill="url(#paint10_linear_1166_335)"/>
<path opacity="0.8" d="M209.089 63.4877C147.522 150.023 222.689 256.529 266.156 299.284C278.779 288.167 287.961 282.095 304.004 270.849C337.181 247.59 354.882 217.548 359.585 205.434C361.58 194.602 370.787 166.869 391.651 142.584C412.516 118.299 409.466 83.725 405.333 69.4734C377.628 74.2619 336.783 102.537 319.823 116.076C326.322 92.1334 376.972 71.0411 401.485 63.4877C405.333 50.6613 386.521 28.4288 380.108 28.0012C374.977 27.6592 353.742 51.5164 343.766 63.4877C341.03 59.0412 349.752 44.5331 354.455 37.8348C360.298 31.5641 368.478 16.2864 354.455 5.34115C340.431 -5.60408 314.978 2.77587 304.004 8.33399C302.636 26.8041 292.033 35.6971 286.902 37.8348C293.401 32.7042 295.025 16.0299 295.025 8.33399C284.422 18.5951 268.945 12.6095 262.532 8.33399C253.554 22.4431 271.51 80.5896 278.779 105.387C284.593 125.226 281.201 142.727 278.779 148.997C279.805 140.788 274.361 116.504 271.51 105.387C256.974 95.1263 253.553 17.7401 252.271 19.0227C251.245 20.0488 223.055 49.0936 209.089 63.4877Z" fill="url(#paint11_linear_1166_335)"/>
<path opacity="0.8" d="M209.089 63.4877C147.522 150.023 222.689 256.529 266.156 299.284C278.779 288.167 287.961 282.095 304.004 270.849C337.182 247.59 354.882 217.548 359.585 205.434C361.581 194.602 370.787 166.869 391.652 142.584C412.516 118.299 409.466 83.725 405.333 69.4734C377.628 74.2619 336.783 102.537 319.824 116.076C326.322 92.1334 376.972 71.0411 401.485 63.4877C405.333 50.6613 386.521 28.4288 380.108 28.0012C374.977 27.6592 353.742 51.5164 343.766 63.4877C341.03 59.0412 349.752 44.5331 354.455 37.8348C360.298 31.5641 368.479 16.2864 354.455 5.34115C340.431 -5.60408 314.978 2.77587 304.004 8.33399C302.636 26.8041 292.033 35.6971 286.902 37.8348C293.401 32.7042 295.026 16.0299 295.026 8.33399C284.423 18.5951 268.946 12.6095 262.532 8.33399C253.554 22.4431 271.511 80.5896 278.779 105.387C284.594 125.226 281.202 142.727 278.779 148.997C279.805 140.788 274.361 116.504 271.511 105.387C256.974 95.1263 253.554 17.7401 252.271 19.0227C251.245 20.0488 223.055 49.0936 209.089 63.4877Z" fill="url(#paint12_linear_1166_335)"/>
<path d="M266.584 298.856C267.586 282.085 269.662 258.206 272.919 233.441M300.36 129.975C289.873 143.433 281.991 175.403 276.429 209.499M276.429 209.499C302.791 190.972 359.533 146.564 375.609 117.148M276.429 209.499C275.134 217.433 273.966 225.483 272.919 233.441M272.919 233.441C248.86 204.938 207.326 132.027 233.663 68.4077" stroke="#C4A281" stroke-width="2"/>
<path d="M266.584 298.856C267.586 282.085 269.661 258.206 272.919 233.441M300.36 129.975C289.873 143.433 281.991 175.403 276.429 209.499M276.429 209.499C302.79 190.972 359.533 146.564 375.609 117.148M276.429 209.499C275.134 217.433 273.965 225.483 272.919 233.441M272.919 233.441C248.86 204.938 207.326 132.027 233.663 68.4077" stroke="#C4A281" stroke-width="2"/>
<path d="M278.779 227.666C237.938 385.221 264.528 592.65 286.903 760.391H304.005C265.231 563.081 259.44 357.43 278.779 227.666Z" fill="url(#paint13_linear_1166_335)"/>
</g>
<defs>
<linearGradient id="paint0_linear_1166_335" x1="402.971" y1="522.464" x2="532.519" y2="478.427" gradientUnits="userSpaceOnUse">
<stop stop-color="#435758"/>
<stop offset="1" stop-color="#63898A" stop-opacity="0.04"/>
</linearGradient>
<linearGradient id="paint1_linear_1166_335" x1="388.862" y1="522.464" x2="530.808" y2="464.745" gradientUnits="userSpaceOnUse">
<stop stop-color="#435758"/>
<stop offset="1" stop-color="#63898A" stop-opacity="0.04"/>
</linearGradient>
<linearGradient id="paint2_linear_1166_335" x1="407.81" y1="368.673" x2="259.976" y2="548.186" gradientUnits="userSpaceOnUse">
<stop stop-color="#C38065" stop-opacity="0.38"/>
<stop offset="0.780643" stop-color="#9F5A48"/>
</linearGradient>
<linearGradient id="paint3_linear_1166_335" x1="438.03" y1="147.077" x2="258.46" y2="365.126" gradientUnits="userSpaceOnUse">
<stop stop-color="#C38065"/>
<stop offset="1" stop-color="#9F5A48"/>
</linearGradient>
<linearGradient id="paint4_linear_1166_335" x1="100.428" y1="238.934" x2="267.694" y2="436.796" gradientUnits="userSpaceOnUse">
<stop stop-color="#C38065"/>
<stop offset="1" stop-color="#9F5A48"/>
</linearGradient>
<linearGradient id="paint5_linear_1166_335" x1="217.688" y1="352.545" x2="189.544" y2="469.559" gradientUnits="userSpaceOnUse">
<stop stop-color="#C39B78" stop-opacity="0.5"/>
<stop offset="1" stop-color="#C39B78"/>
</linearGradient>
<linearGradient id="paint6_linear_1166_335" x1="17.5159" y1="335.178" x2="261.741" y2="620.627" gradientUnits="userSpaceOnUse">
<stop stop-color="#81928A"/>
<stop offset="1" stop-color="#465A5E"/>
</linearGradient>
<linearGradient id="paint7_linear_1166_335" x1="92.063" y1="610.679" x2="280.484" y2="694.319" gradientUnits="userSpaceOnUse">
<stop stop-color="#81928A"/>
<stop offset="1" stop-color="#465A5E"/>
</linearGradient>
<linearGradient id="paint8_linear_1166_335" x1="420.748" y1="368.441" x2="419.06" y2="226.903" gradientUnits="userSpaceOnUse">
<stop stop-color="#435758"/>
<stop offset="1" stop-color="#63898A" stop-opacity="0.51"/>
</linearGradient>
<linearGradient id="paint9_linear_1166_335" x1="405.303" y1="374.764" x2="521.788" y2="368.338" gradientUnits="userSpaceOnUse">
<stop stop-color="#435758"/>
<stop offset="1" stop-color="#63898A" stop-opacity="0.04"/>
</linearGradient>
<linearGradient id="paint10_linear_1166_335" x1="321.31" y1="640.467" x2="226.797" y2="542.737" gradientUnits="userSpaceOnUse">
<stop stop-color="#232D2D"/>
<stop offset="1" stop-color="#425A5B"/>
</linearGradient>
<linearGradient id="paint11_linear_1166_335" x1="296.732" y1="1.44723e-06" x2="263.591" y2="300.139" gradientUnits="userSpaceOnUse">
<stop stop-color="#C59D7A" stop-opacity="0.8"/>
<stop offset="1" stop-color="#B17948"/>
</linearGradient>
<linearGradient id="paint12_linear_1166_335" x1="296.732" y1="1.44723e-06" x2="263.591" y2="300.139" gradientUnits="userSpaceOnUse">
<stop stop-color="#C59D7A" stop-opacity="0.8"/>
<stop offset="1" stop-color="#B17948"/>
</linearGradient>
<linearGradient id="paint13_linear_1166_335" x1="261.926" y1="760.133" x2="187.892" y2="743.405" gradientUnits="userSpaceOnUse">
<stop stop-color="#142122"/>
<stop offset="1" stop-color="#2A3A3B"/>
</linearGradient>
</defs>
</svg>
