<svg width="36" height="36" viewBox="0 0 36 36" fill="none" xmlns="http://www.w3.org/2000/svg">
<path d="M2.53212 33.4711C5.0643 36 9.1347 36 17.2814 36H18.7186C26.8653 36 30.9357 36 33.4678 33.4711C36 30.9423 36 26.868 36 18.7194V17.2806C36 9.132 36 5.0577 33.4678 2.52888C30.9357 -3.57628e-07 26.8596 0 18.7186 0H17.2814C9.1347 0 5.0586 -3.57628e-07 2.53212 2.52888C-1.78814e-07 5.0634 0 9.1377 0 17.2806V18.7194C0 26.868 -1.78814e-07 30.9423 2.53212 33.4711Z" fill="#0077FF"/>
<path fill-rule="evenodd" clip-rule="evenodd" d="M27.7928 23.9294L25.3617 23.3225C25.0698 23.2382 24.8621 22.9741 24.8508 22.6706L24.5477 13.7183C24.4578 12.5326 23.582 11.5885 22.6611 11.3131C22.6106 11.2963 22.5545 11.3131 22.5264 11.3636C22.4927 11.4086 22.5096 11.4704 22.5489 11.5042C22.7735 11.6783 23.4023 12.2516 23.4023 13.2407V24.9466C23.4023 26.0761 22.3299 26.9078 21.2295 26.6324L18.759 26.0143C18.4839 25.9187 18.2931 25.6658 18.2874 25.3681L17.9843 16.4158C17.8944 15.23 17.0186 14.2859 16.0979 14.0105C16.0473 13.9937 15.9912 14.0105 15.963 14.0611C15.9294 14.1061 15.9462 14.1679 15.9855 14.2016C16.2101 14.3758 16.8389 14.9491 16.8389 15.9382V25.694V27.644C16.8389 28.7735 15.7722 29.6053 14.6718 29.3299L7.6986 27.5878C6.7272 27.3461 6.04785 26.4751 6.04785 25.4804V13.7576C6.04785 12.6281 7.11465 11.7964 8.21505 12.0718L12.6113 13.1677V11.0546C12.6113 9.92495 13.6779 9.0932 14.7785 9.3686L19.1745 10.4645V8.35145C19.1745 7.22195 20.2413 6.3902 21.3417 6.6656L28.3149 8.4077C29.2862 8.64935 29.9655 9.5204 29.9655 10.5151V22.2379C29.9655 23.3674 28.8989 24.1991 27.7983 23.9237" fill="white"/>
</svg>
