<svg width="162" height="52" viewBox="0 0 162 52" fill="none" xmlns="http://www.w3.org/2000/svg">
<path d="M10.4024 51.9973C9.98385 51.9973 9.57539 51.992 9.16009 51.9827C8.29977 51.9716 7.44146 51.8975 6.5922 51.761C5.80031 51.6261 5.03317 51.375 4.31611 51.0162C3.60562 50.6603 2.9576 50.1937 2.39686 49.6342C1.82801 49.0813 1.35442 48.44 0.994849 47.7358C0.631317 47.027 0.379732 46.2673 0.248857 45.483C0.107522 44.6403 0.0310547 43.7883 0.020113 42.9341C0.0114029 42.6474 0 41.6929 0 41.6929V10.2898C0 10.2898 0.0121448 9.3499 0.0201817 9.07376C0.0306583 8.22098 0.106681 7.37023 0.247593 6.52886C0.37871 5.74247 0.63049 4.98052 0.994217 4.26939C1.35247 3.56565 1.82343 2.92389 2.38885 2.36901C2.95364 1.80885 3.60374 1.33984 4.31544 0.979058C5.03085 0.621376 5.79653 0.372114 6.58683 0.239623C7.43887 0.101733 8.30017 0.0271828 9.16347 0.0165984L10.4031 0H151.59L152.845 0.0172645C153.7 0.027323 154.554 0.101208 155.398 0.23829C156.196 0.372443 156.97 0.623445 157.693 0.983041C159.119 1.71011 160.279 2.86041 161.011 4.27271C161.369 4.97893 161.617 5.73466 161.746 6.51426C161.889 7.36253 161.969 8.21997 161.985 9.07975C161.989 9.46473 161.989 9.87826 161.989 10.2898C162 10.7996 162 11.2848 162 11.774V40.2246C162 40.7184 162 41.2003 161.989 41.6862C161.989 42.1283 161.989 42.5332 161.984 42.95C161.968 43.7945 161.889 44.6366 161.749 45.4697C161.621 46.2596 161.371 47.0253 161.007 47.7399C160.645 48.4365 160.174 49.0722 159.612 49.6236C159.051 50.1861 158.401 50.6555 157.689 51.0136C156.968 51.3752 156.195 51.6272 155.398 51.761C154.549 51.8983 153.69 51.9724 152.83 51.9827C152.427 51.992 152.006 51.9973 151.597 51.9973L150.108 52L10.4024 51.9973Z" fill="black"/>
<path d="M32.6261 26.4074C32.6408 25.2728 32.9435 24.1603 33.506 23.1734C34.0686 22.1866 34.8727 21.3574 35.8436 20.7631C35.2268 19.8861 34.4132 19.1643 33.4672 18.6551C32.5212 18.146 31.4691 17.8634 30.3943 17.8299C28.1015 17.5903 25.8788 19.1959 24.7104 19.1959C23.5195 19.1959 21.7206 17.8537 19.7835 17.8934C18.5306 17.9337 17.3095 18.2965 16.2392 18.9464C15.1689 19.5962 14.286 20.5111 13.6764 21.6017C11.0358 26.1536 13.0055 32.8433 15.5349 36.5226C16.8005 38.3243 18.2795 40.3369 20.2149 40.2655C22.1087 40.1873 22.816 39.0631 25.102 39.0631C27.3668 39.0631 28.0304 40.2655 30.005 40.2201C32.0372 40.1873 33.3175 38.4104 34.5387 36.5917C35.448 35.3079 36.1477 33.8891 36.6119 32.3877C35.4312 31.8905 34.4237 31.0583 33.7149 29.9949C33.0061 28.9314 32.6275 27.6837 32.6261 26.4074Z" fill="white"/>
<path d="M28.8963 15.4102C30.0043 14.0858 30.5502 12.3836 30.418 10.665C28.7252 10.842 27.1615 11.6475 26.0386 12.9211C25.4895 13.5432 25.069 14.267 24.801 15.0511C24.5331 15.8352 24.423 16.6641 24.477 17.4906C25.3237 17.4993 26.1613 17.3165 26.9268 16.9562C27.6924 16.5958 28.3657 16.0672 28.8963 15.4102Z" fill="white"/>
<path d="M56.5654 35.7044H50.1026L48.5506 40.2672H45.8132L51.9347 23.386H54.7787L60.9001 40.2672H58.1161L56.5654 35.7044ZM50.772 33.5989H55.8948L53.3694 26.1938H53.2987L50.772 33.5989Z" fill="white"/>
<path d="M74.1204 34.114C74.1204 37.9386 72.0644 40.3959 68.9617 40.3959C68.1757 40.4368 67.394 40.2566 66.7062 39.8758C66.0183 39.4949 65.4521 38.9289 65.0723 38.2426H65.0136V44.3387H62.4762V27.9595H64.9323V30.0065H64.9789C65.3762 29.3235 65.952 28.7604 66.6451 28.3773C67.3382 27.9941 68.1227 27.8052 68.915 27.8307C72.0523 27.8307 74.1204 30.2999 74.1204 34.114ZM71.5124 34.114C71.5124 31.6222 70.219 29.984 68.2457 29.984C66.307 29.984 65.0029 31.6567 65.0029 34.114C65.0029 36.5938 66.307 38.2546 68.2457 38.2546C70.219 38.2546 71.5124 36.6283 71.5124 34.114Z" fill="white"/>
<path d="M87.7261 34.114C87.7261 37.9387 85.6701 40.396 82.5674 40.396C81.7814 40.4369 80.9998 40.2566 80.3119 39.8758C79.624 39.495 79.0578 38.929 78.678 38.2427H78.6193V44.3388H76.0819V27.9595H78.5379V30.0066H78.5846C78.9819 29.3235 79.5577 28.7605 80.2508 28.3774C80.9439 27.9942 81.7283 27.8053 82.5207 27.8308C85.6581 27.8308 87.7261 30.3 87.7261 34.114ZM85.1181 34.114C85.1181 31.6222 83.8247 29.984 81.8514 29.984C79.9127 29.984 78.6086 31.6567 78.6086 34.114C78.6086 36.5939 79.9127 38.2546 81.8514 38.2546C83.8247 38.2546 85.1181 36.6284 85.1181 34.114H85.1181Z" fill="white"/>
<path d="M96.718 35.5637C96.906 37.2377 98.5394 38.3368 100.771 38.3368C102.91 38.3368 104.449 37.2376 104.449 35.7282C104.449 34.4179 103.521 33.6334 101.323 33.0957L99.1261 32.5687C96.0127 31.8199 94.5673 30.3702 94.5673 28.0178C94.5673 25.1052 97.1167 23.1046 100.737 23.1046C104.319 23.1046 106.776 25.1052 106.858 28.0178H104.297C104.143 26.3332 102.745 25.3163 100.701 25.3163C98.6567 25.3163 97.258 26.3451 97.258 27.8426C97.258 29.0361 98.1514 29.7383 100.337 30.2759L102.205 30.7326C105.683 31.5517 107.129 32.943 107.129 35.4122C107.129 38.5704 104.602 40.5485 100.583 40.5485C96.8233 40.5485 94.2846 38.6169 94.1206 35.5635L96.718 35.5637Z" fill="white"/>
<path d="M112.605 25.0468V27.9595H114.956V29.9601H112.605V36.7452C112.605 37.7992 113.076 38.2904 114.109 38.2904C114.388 38.2856 114.667 38.2661 114.944 38.232V40.2206C114.479 40.3071 114.007 40.3462 113.534 40.3375C111.032 40.3375 110.056 39.4015 110.056 37.0146V29.9601H108.258V27.9595H110.056V25.0468H112.605Z" fill="white"/>
<path d="M116.317 34.114C116.317 30.2416 118.608 27.8082 122.18 27.8082C125.764 27.8082 128.044 30.2415 128.044 34.114C128.044 37.9971 125.776 40.4198 122.18 40.4198C118.585 40.4198 116.317 37.9971 116.317 34.114ZM125.458 34.114C125.458 31.4576 124.236 29.8898 122.18 29.8898C120.124 29.8898 118.902 31.4695 118.902 34.114C118.902 36.781 120.124 38.3369 122.18 38.3369C124.236 38.3369 125.458 36.781 125.458 34.114H125.458Z" fill="white"/>
<path d="M130.136 27.9595H132.556V30.0543H132.615C132.778 29.4001 133.163 28.8219 133.705 28.4169C134.246 28.012 134.911 27.805 135.588 27.8307C135.88 27.8297 136.172 27.8613 136.457 27.925V30.288C136.088 30.1757 135.703 30.1241 135.317 30.1353C134.949 30.1204 134.581 30.1852 134.24 30.325C133.899 30.4649 133.592 30.6766 133.341 30.9456C133.09 31.2146 132.9 31.5346 132.785 31.8835C132.67 32.2324 132.631 32.602 132.673 32.967V40.2671H130.136L130.136 27.9595Z" fill="white"/>
<path d="M148.156 36.6523C147.815 38.8865 145.63 40.4198 142.833 40.4198C139.237 40.4198 137.005 38.021 137.005 34.1724C137.005 30.3119 139.249 27.8082 142.727 27.8082C146.147 27.8082 148.298 30.1473 148.298 33.879V34.7446H139.567V34.8973C139.526 35.3502 139.583 35.8065 139.734 36.2359C139.884 36.6652 140.125 37.0578 140.439 37.3875C140.754 37.7172 141.135 37.9766 141.558 38.1483C141.981 38.32 142.436 38.4001 142.892 38.3834C143.492 38.4393 144.093 38.3011 144.608 37.9891C145.122 37.6772 145.522 37.2084 145.747 36.6523L148.156 36.6523ZM139.579 32.979H145.759C145.782 32.5717 145.72 32.1641 145.577 31.7818C145.434 31.3996 145.213 31.0508 144.928 30.7575C144.644 30.4642 144.301 30.2326 143.922 30.0774C143.543 29.9221 143.136 29.8465 142.727 29.8552C142.314 29.8528 141.904 29.9318 141.522 30.0878C141.139 30.2438 140.792 30.4736 140.499 30.764C140.206 31.0545 139.974 31.3997 139.816 31.7799C139.658 32.16 139.578 32.5676 139.579 32.979V32.979Z" fill="white"/>
<path d="M48.9688 14.1085H50.0581C50.2456 14.1318 50.436 14.1161 50.6171 14.0625C50.7982 14.0089 50.9663 13.9185 51.1106 13.797C51.2549 13.6755 51.3724 13.5256 51.4556 13.3567C51.5388 13.1877 51.586 13.0035 51.5941 12.8155C51.5941 12.0674 51.0288 11.5842 50.0701 11.5842C49.878 11.5575 49.6824 11.5693 49.495 11.6191C49.3076 11.6689 49.132 11.7555 48.9788 11.874C48.8255 11.9924 48.6977 12.1402 48.6027 12.3086C48.5078 12.4771 48.4478 12.6627 48.4261 12.8547H47.23C47.2506 12.5063 47.343 12.1658 47.5015 11.8545C47.66 11.5431 47.8811 11.2676 48.1511 11.0451C48.4212 10.8226 48.7344 10.6577 49.0711 10.5609C49.4079 10.4641 49.7611 10.4374 50.1088 10.4823C51.7128 10.4823 52.8422 11.3764 52.8422 12.6635C52.846 13.0947 52.7011 13.5141 52.4317 13.8517C52.1624 14.1894 51.7848 14.4248 51.3622 14.5187V14.6143C51.8632 14.6365 52.3351 14.8552 52.6747 15.2228C53.0142 15.5903 53.1938 16.0768 53.1742 16.5758C53.1371 16.9345 53.0285 17.2823 52.8546 17.5987C52.6808 17.915 52.4453 18.1937 52.1619 18.4183C51.8786 18.6429 51.553 18.8089 51.2043 18.9066C50.8556 19.0043 50.4909 19.0317 50.1315 18.9873C49.7713 19.0362 49.4049 19.0123 49.0541 18.9172C48.7034 18.8221 48.3754 18.6577 48.0899 18.4337C47.8043 18.2097 47.567 17.9308 47.392 17.6135C47.217 17.2963 47.108 16.9472 47.0714 16.5871H48.2861C48.3594 17.363 49.0755 17.8635 50.1315 17.8635C51.1875 17.8635 51.8768 17.3013 51.8768 16.5088C51.8768 15.705 51.2275 15.2098 50.0928 15.2098H48.9688V14.1085Z" fill="white"/>
<path d="M54.5542 17.0597C54.5542 15.9578 55.3795 15.3226 56.8409 15.2323L58.5063 15.1367V14.6084C58.5063 13.9618 58.0782 13.5968 57.2476 13.5968C56.5702 13.5968 56.1022 13.8444 55.9662 14.2771H54.7915C54.9155 13.2257 55.9102 12.5513 57.3049 12.5513C58.8463 12.5513 59.7156 13.3153 59.7156 14.6084V18.7908H58.5463V17.9305H58.4503C58.2554 18.2391 57.9818 18.4907 57.6573 18.6595C57.3329 18.8284 56.9693 18.9085 56.6036 18.8916C56.3455 18.9184 56.0846 18.891 55.8378 18.8112C55.591 18.7314 55.3637 18.601 55.1707 18.4284C54.9776 18.2558 54.823 18.0448 54.7168 17.809C54.6106 17.5733 54.5552 17.318 54.5542 17.0597ZM58.5063 16.5366V16.0249L57.0048 16.1204C56.1582 16.1768 55.7742 16.4636 55.7742 17.0032C55.7742 17.5542 56.2542 17.8748 56.9142 17.8748C57.1076 17.8943 57.303 17.8748 57.4887 17.8176C57.6744 17.7604 57.8466 17.6666 57.9952 17.5417C58.1437 17.4169 58.2655 17.2636 58.3533 17.0909C58.4411 16.9182 58.4931 16.7297 58.5063 16.5366Z" fill="white"/>
<path d="M62.9355 13.6864V18.7908H61.7222V12.6695H65.7703V13.6863L62.9355 13.6864Z" fill="white"/>
<path d="M73.1239 15.7274C73.1239 17.6723 72.1359 18.8916 70.5838 18.8916C70.2028 18.9175 69.8224 18.8345 69.4872 18.6524C69.152 18.4702 68.876 18.1965 68.6918 17.8635H68.5958V20.8259H67.3824V12.6694H68.5505V13.6811H68.6411C68.8287 13.3364 69.1082 13.05 69.4489 12.8536C69.7896 12.6571 70.1782 12.5583 70.5718 12.5679C72.1358 12.5679 73.1239 13.7819 73.1239 15.7274ZM71.8759 15.7274C71.8759 14.4344 71.2612 13.6531 70.2332 13.6531C69.2119 13.6531 68.5731 14.451 68.5731 15.7327C68.5731 17.0085 69.2118 17.807 70.2278 17.807C71.2612 17.807 71.8759 17.0258 71.8759 15.7274Z" fill="white"/>
<path d="M74.7396 20.9832V19.9431C74.8709 19.9597 75.0032 19.9672 75.1356 19.9657C75.3941 19.9847 75.6506 19.9081 75.8558 19.7504C76.061 19.5928 76.2006 19.3652 76.2476 19.1114L76.3383 18.8133L74.1129 12.6695H75.4343L76.9757 17.5316H77.0717L78.6077 12.6695H79.8944L77.6024 19.0437C77.077 20.5332 76.4957 21.0111 75.2423 21.0111C75.141 21.0111 74.853 20.9998 74.7396 20.9832Z" fill="white"/>
<path d="M80.8398 17.0537H82.0479C82.1665 17.5933 82.6746 17.8747 83.3852 17.8747C84.1932 17.8747 84.6892 17.5203 84.6892 16.9694C84.6892 16.3793 84.2439 16.0979 83.3852 16.0979H82.4652V15.1593H83.3692C84.1026 15.1593 84.4759 14.8785 84.4759 14.3667C84.4759 13.9174 84.1146 13.5742 83.3692 13.5742C82.6905 13.5742 82.1945 13.861 82.1158 14.3442H80.9465C81.0339 13.7889 81.3367 13.29 81.7898 12.9547C82.2429 12.6194 82.81 12.4746 83.3692 12.5513C84.8306 12.5513 85.6666 13.2091 85.6666 14.2433C85.6734 14.5313 85.5807 14.8129 85.4041 15.041C85.2274 15.2691 84.9774 15.4299 84.6959 15.4965V15.5921C85.031 15.6351 85.3386 15.7991 85.5603 16.053C85.782 16.3069 85.9024 16.633 85.8986 16.9694C85.8986 18.1331 84.9039 18.903 83.3852 18.903C82.0425 18.9029 80.9519 18.2903 80.8398 17.0537Z" fill="white"/>
<path d="M87.646 18.7908V12.6695H88.8487V16.8798H88.9447L91.7781 12.6695H92.9808V18.7908H91.7781V14.5579H91.6874L88.8487 18.7908L87.646 18.7908Z" fill="white"/>
<path d="M99.6062 13.6864H97.6702V18.7908H96.4555V13.6864H94.5194V12.6695H99.6062V13.6864Z" fill="white"/>
<path d="M106.142 17.138C105.977 17.6974 105.619 18.1812 105.132 18.5049C104.645 18.8286 104.059 18.9716 103.477 18.9089C103.072 18.9195 102.669 18.8423 102.297 18.6825C101.925 18.5228 101.592 18.2843 101.322 17.9837C101.052 17.6831 100.851 17.3275 100.732 16.9417C100.614 16.5558 100.581 16.149 100.637 15.7493C100.583 15.3485 100.616 14.9407 100.734 14.5538C100.852 14.1668 101.052 13.8096 101.321 13.5063C101.59 13.2031 101.921 12.9609 102.292 12.7961C102.663 12.6313 103.065 12.5478 103.472 12.5513C105.182 12.5513 106.216 13.7149 106.216 15.6371V16.0587H101.874V16.1264C101.855 16.3511 101.883 16.5773 101.957 16.7905C102.031 17.0036 102.149 17.1991 102.303 17.3642C102.457 17.5294 102.644 17.6606 102.852 17.7494C103.061 17.8383 103.285 17.8827 103.512 17.88C103.802 17.9145 104.095 17.8624 104.356 17.7303C104.616 17.5981 104.831 17.392 104.973 17.1379L106.142 17.138ZM101.874 15.1652H104.978C104.994 14.9599 104.966 14.7536 104.896 14.5597C104.827 14.3657 104.717 14.1884 104.575 14.0391C104.432 13.8898 104.26 13.7717 104.069 13.6926C103.878 13.6134 103.673 13.5749 103.466 13.5795C103.256 13.5766 103.048 13.6157 102.853 13.6944C102.659 13.7731 102.482 13.8898 102.334 14.0376C102.185 14.1855 102.068 14.3614 101.989 14.5551C101.91 14.7488 101.871 14.9562 101.874 15.1652H101.874Z" fill="white"/>
<path d="M111.286 12.6695H114.058C115.261 12.6695 115.966 13.2762 115.966 14.226C115.968 14.5274 115.866 14.8203 115.677 15.0556C115.488 15.291 115.223 15.4546 114.928 15.519V15.6146C115.287 15.6372 115.623 15.7962 115.868 16.0588C116.113 16.3215 116.247 16.6676 116.242 17.0258C116.242 18.0938 115.436 18.7908 114.086 18.7908H111.286V12.6695ZM112.489 13.5968V15.1818H113.692C114.425 15.1818 114.776 14.9011 114.776 14.3833C114.776 13.9061 114.47 13.5967 113.826 13.5967L112.489 13.5968ZM112.489 16.07V17.8635H113.928C114.645 17.8635 115.029 17.5482 115.029 16.9694C115.029 16.3568 114.594 16.07 113.776 16.07L112.489 16.07Z" fill="white"/>
</svg>
