<svg width="36" height="36" viewBox="0 0 36 36" fill="none" xmlns="http://www.w3.org/2000/svg">
<rect width="36" height="36" rx="10" fill="black"/>
<path d="M23.7035 17.2758C23.68 14.6519 25.8363 13.3754 25.9349 13.316C24.7137 11.5225 22.8209 11.2774 22.1558 11.2579C20.566 11.0894 19.024 12.2161 18.2142 12.2161C17.3882 12.2161 16.1411 11.2742 14.7971 11.3019C13.0675 11.3287 11.4495 12.3374 10.5621 13.9038C8.7307 17.0975 10.0966 21.7909 11.8512 24.3724C12.7289 25.6367 13.7545 27.0484 15.0969 26.9987C16.4102 26.9442 16.9008 26.1553 18.4857 26.1553C20.0561 26.1553 20.5167 26.9987 21.8858 26.967C23.2953 26.9442 24.1827 25.697 25.0297 24.4213C26.044 22.9721 26.4514 21.545 26.4675 21.4717C26.4344 21.4603 23.7301 20.4207 23.7035 17.2758Z" fill="white"/>
<path d="M21.1174 9.55961C21.8238 8.66979 22.3071 7.45921 22.1729 6.23071C21.1506 6.2763 19.872 6.94306 19.1357 7.81334C18.4843 8.58024 17.9024 9.83722 18.0527 11.0193C19.2012 11.1056 20.3804 10.4356 21.1174 9.55961Z" fill="white"/>
</svg>
