<svg width="36" height="36" viewBox="0 0 36 36" fill="none" xmlns="http://www.w3.org/2000/svg">
<rect width="36" height="36" rx="10" fill="black"/>
<mask id="mask0_41_1783" style="mask-type:alpha" maskUnits="userSpaceOnUse" x="9" y="5" width="24" height="26">
<path d="M32.0484 16.4004C33.3172 17.0986 33.3172 18.9014 32.0484 19.5996L11.7563 30.7659C10.5205 31.4459 9 30.5634 9 29.1663V6.83374C9 5.43657 10.5205 4.55415 11.7563 5.23415L32.0484 16.4004Z" fill="#C4C4C4"/>
</mask>
<g mask="url(#mask0_41_1783)">
<path d="M9.63473 30.5466L22.2923 17.8179L9.84319 5.29883C9.34653 5.61721 9 6.1669 9 6.8339V29.1664C9 29.7355 9.25223 30.2191 9.63473 30.5466Z" fill="url(#paint0_linear_41_1783)"/>
<path d="M32.048 16.4003C33.3169 17.0985 33.3169 18.9012 32.048 19.5994L26.9287 22.4165L22.292 17.8175L26.6923 13.4531L32.048 16.4003Z" fill="url(#paint1_linear_41_1783)"/>
<path d="M26.9292 22.4168L22.2924 17.8179L9.63477 30.5466C10.1914 31.0232 11.0239 31.1691 11.7563 30.766L26.9292 22.4168Z" fill="url(#paint2_linear_41_1783)"/>
<path d="M9.84277 5.29865L22.2919 17.8177L26.6922 13.4533L11.7558 5.23415C11.11 4.87878 10.3865 4.95013 9.84277 5.29865Z" fill="url(#paint3_linear_41_1783)"/>
</g>
<defs>
<linearGradient id="paint0_linear_41_1783" x1="17.6769" y1="12.874" x2="9.07106" y2="21.5506" gradientUnits="userSpaceOnUse">
<stop stop-color="#00C3FF"/>
<stop offset="1" stop-color="#1BE2FA"/>
</linearGradient>
<linearGradient id="paint1_linear_41_1783" x1="22.292" y1="17.8176" x2="33.7381" y2="17.8176" gradientUnits="userSpaceOnUse">
<stop stop-color="#FFCE00"/>
<stop offset="1" stop-color="#FFEA00"/>
</linearGradient>
<linearGradient id="paint2_linear_41_1783" x1="9.36932" y1="32.1004" x2="24.595" y2="19.8937" gradientUnits="userSpaceOnUse">
<stop stop-color="#DE2453"/>
<stop offset="1" stop-color="#FE3944"/>
</linearGradient>
<linearGradient id="paint3_linear_41_1783" x1="10.1073" y1="3.90137" x2="24.5971" y2="15.7365" gradientUnits="userSpaceOnUse">
<stop stop-color="#11D574"/>
<stop offset="1" stop-color="#01F176"/>
</linearGradient>
</defs>
</svg>
