<svg width="166" height="52" viewBox="0 0 166 52" fill="none" xmlns="http://www.w3.org/2000/svg">
<path d="M159.852 0H6.14815C4.51756 0 2.95375 0.684819 1.80075 1.90381C0.647749 3.12279 0 4.77609 0 6.5V45.5C0 47.2239 0.647749 48.8772 1.80075 50.0962C2.95375 51.3152 4.51756 52 6.14815 52H159.852C161.482 52 163.046 51.3152 164.199 50.0962C165.352 48.8772 166 47.2239 166 45.5V6.5C166 4.77609 165.352 3.12279 164.199 1.90381C163.046 0.684819 161.482 0 159.852 0Z" fill="black"/>
<path d="M13.5335 9.80202C13.1064 10.3085 12.8884 10.9596 12.9243 11.622V40.378C12.8802 41.0415 13.0991 41.6956 13.5335 42.198L13.6243 42.302L29.6854 26.195V25.805L13.6243 9.71102L13.5335 9.80202Z" fill="url(#paint0_linear_36_150)"/>
<path d="M35.0001 31.564L29.6853 26.195V25.805L35.0001 20.436L35.1168 20.514L41.4816 24.128C43.2964 25.155 43.2964 26.845 41.4816 27.885L35.1427 31.499L35.0001 31.564Z" fill="url(#paint1_linear_36_150)"/>
<path d="M35.1554 31.486L29.6851 26L13.5332 42.198C13.8995 42.525 14.3684 42.7131 14.8585 42.7297C15.3486 42.7464 15.829 42.5904 16.2165 42.289L35.1554 31.486Z" fill="url(#paint2_linear_36_150)"/>
<path d="M35.1554 20.514L16.2165 9.724C15.8316 9.41839 15.3515 9.25868 14.8607 9.27294C14.3699 9.28721 13.8999 9.47454 13.5332 9.802L29.6851 26L35.1554 20.514Z" fill="url(#paint3_linear_36_150)"/>
<path opacity="0.2" d="M34.9999 31.369L16.2165 42.094C15.8431 42.3766 15.3881 42.5295 14.9202 42.5295C14.4524 42.5295 13.9973 42.3766 13.6239 42.094L13.5332 42.185L13.6239 42.289C13.9973 42.5716 14.4524 42.7245 14.9202 42.7245C15.3881 42.7245 15.8431 42.5716 16.2165 42.289L35.1554 31.486L34.9999 31.369Z" fill="black"/>
<path opacity="0.12" d="M13.5333 42.016C13.1169 41.5004 12.9128 40.8446 12.9629 40.183V40.378C12.9188 41.0415 13.1377 41.6956 13.5721 42.198L13.6629 42.107L13.5333 42.016Z" fill="black"/>
<path opacity="0.12" d="M41.4815 27.69L35 31.369L35.1167 31.486L41.4815 27.872C41.8572 27.7127 42.1831 27.4547 42.4249 27.1253C42.6667 26.7959 42.8155 26.4071 42.8556 26C42.7745 26.37 42.6079 26.7156 42.3693 27.0092C42.1306 27.3027 41.8265 27.5359 41.4815 27.69Z" fill="black"/>
<path opacity="0.25" d="M16.2167 9.90602L41.4815 24.31C41.8265 24.4641 42.1306 24.6973 42.3693 24.9909C42.6079 25.2844 42.7745 25.6301 42.8556 26C42.8155 25.5929 42.6667 25.2042 42.4249 24.8747C42.1831 24.5453 41.8572 24.2873 41.4815 24.128L16.2167 9.72402C14.4148 8.68402 12.9241 9.54202 12.9241 11.622V11.817C12.963 9.73702 14.4148 8.87902 16.2167 9.90602Z" fill="white"/>
<path d="M85.0552 28.547C84.0642 28.5494 83.0962 28.8464 82.2735 29.4005C81.4508 29.9545 80.8104 30.7408 80.4333 31.6599C80.0562 32.579 79.9593 33.5896 80.1549 34.5639C80.3506 35.5382 80.8299 36.4324 81.5323 37.1335C82.2347 37.8346 83.1286 38.3111 84.101 38.5027C85.0734 38.6943 86.0807 38.5924 86.9953 38.2099C87.91 37.8274 88.6911 37.1815 89.2397 36.3539C89.7884 35.5263 90.08 34.554 90.0776 33.5602C90.0872 32.8972 89.9637 32.2391 89.7144 31.6249C89.4651 31.0108 89.0951 30.4533 88.6265 29.9855C88.1579 29.5178 87.6002 29.1494 86.9867 28.9022C86.3731 28.6551 85.7163 28.5343 85.0552 28.547ZM85.0552 36.6035C84.4478 36.6461 83.8417 36.5044 83.3156 36.197C82.7895 35.8895 82.3678 35.4305 82.1053 34.8795C81.8428 34.3285 81.7517 33.711 81.8438 33.1074C81.9359 32.5038 82.2069 31.9419 82.6216 31.4948C83.0363 31.0477 83.5756 30.7361 84.1693 30.6004C84.763 30.4647 85.3836 30.5113 85.9505 30.7341C86.5175 30.9568 87.0045 31.3455 87.3483 31.8495C87.692 32.3535 87.8766 32.9496 87.8781 33.5602C87.8971 33.9471 87.8386 34.3339 87.7061 34.6978C87.5736 35.0617 87.3698 35.3953 87.1067 35.6789C86.8436 35.9625 86.5265 36.1905 86.1742 36.3493C85.8219 36.5081 85.4414 36.5945 85.0552 36.6035ZM74.093 28.547C73.102 28.5494 72.1339 28.8464 71.3112 29.4005C70.4885 29.9545 69.8481 30.7408 69.471 31.6599C69.0939 32.579 68.9971 33.5896 69.1927 34.5639C69.3883 35.5382 69.8676 36.4324 70.57 37.1335C71.2724 37.8346 72.1663 38.3111 73.1388 38.5027C74.1112 38.6943 75.1184 38.5924 76.0331 38.2099C76.9478 37.8274 77.7288 37.1815 78.2775 36.3539C78.8261 35.5263 79.1177 34.554 79.1154 33.5602C79.125 32.8972 79.0014 32.2391 78.7521 31.6249C78.5028 31.0108 78.1329 30.4533 77.6642 29.9855C77.1956 29.5178 76.6379 29.1494 76.0244 28.9022C75.4109 28.6551 74.754 28.5343 74.093 28.547ZM74.093 36.6035C73.4856 36.6461 72.8794 36.5044 72.3533 36.197C71.8272 35.8895 71.4055 35.4305 71.1431 34.8795C70.8806 34.3285 70.7895 33.711 70.8815 33.1074C70.9736 32.5038 71.2446 31.9419 71.6594 31.4948C72.0741 31.0477 72.6133 30.7361 73.207 30.6004C73.8007 30.4647 74.4213 30.5113 74.9883 30.7341C75.5552 30.9568 76.0422 31.3455 76.386 31.8495C76.7298 32.3535 76.9144 32.9496 76.9159 33.5602C76.9348 33.9471 76.8763 34.3339 76.7438 34.6978C76.6113 35.0617 76.4075 35.3953 76.1444 35.6789C75.8813 35.9625 75.5643 36.1905 75.212 36.3493C74.8596 36.5081 74.4791 36.5945 74.093 36.6035ZM61.0606 30.0923V32.2155H66.1418C66.0621 33.2155 65.6476 34.1592 64.9656 34.8931C64.4559 35.4139 63.8429 35.8216 63.1661 36.0898C62.4894 36.358 61.7641 36.4808 61.0371 36.4501C59.5397 36.4501 58.1037 35.8536 57.0449 34.7918C55.9861 33.73 55.3913 32.2899 55.3913 30.7882C55.3913 29.2866 55.9861 27.8464 57.0449 26.7846C58.1037 25.7228 59.5397 25.1263 61.0371 25.1263C62.4726 25.1049 63.8587 25.6516 64.895 26.6479L66.3888 25.1499C65.6878 24.4545 64.8554 23.9065 63.9405 23.5379C63.0256 23.1692 62.0465 22.9874 61.0606 23.0031C60.0149 22.9623 58.9718 23.1336 57.9938 23.5067C57.0157 23.8799 56.1228 24.4472 55.3686 25.1747C54.6144 25.9022 54.0145 26.7748 53.6046 27.7404C53.1948 28.706 52.9835 29.7447 52.9835 30.7941C52.9835 31.8435 53.1948 32.8822 53.6046 33.8478C54.0145 34.8134 54.6144 35.6861 55.3686 36.4136C56.1228 37.1411 57.0157 37.7084 57.9938 38.0815C58.9718 38.4547 60.0149 38.626 61.0606 38.5852C62.0668 38.6255 63.07 38.4519 64.0045 38.0758C64.939 37.6997 65.7837 37.1296 66.4829 36.403C67.7181 35.0422 68.3762 33.2525 68.3178 31.4134C68.322 30.9707 68.2866 30.5286 68.2119 30.0923H61.0606ZM114.355 31.7437C114.048 30.8386 113.474 30.0484 112.71 29.4775C111.945 28.9067 111.026 28.5822 110.073 28.547C109.43 28.5458 108.793 28.6769 108.202 28.9322C107.611 29.1875 107.079 29.5617 106.638 30.0316C106.197 30.5014 105.857 31.057 105.638 31.6639C105.42 32.2708 105.328 32.9162 105.368 33.5602C105.358 34.637 105.696 35.6881 106.331 36.5566C106.965 37.4251 107.863 38.0644 108.89 38.3789C109.917 38.6934 111.018 38.6664 112.028 38.3017C113.039 37.9371 113.904 37.2544 114.496 36.3558L112.79 35.1762C112.536 35.6012 112.175 35.9521 111.744 36.1942C111.313 36.4363 110.826 36.5611 110.332 36.5563C109.822 36.5774 109.318 36.4434 108.885 36.1718C108.453 35.9002 108.113 35.5038 107.909 35.0347L114.602 32.2627L114.355 31.7437ZM107.533 33.4187C107.509 33.0523 107.558 32.6848 107.678 32.3377C107.797 31.9907 107.984 31.671 108.229 31.3975C108.473 31.124 108.769 30.9021 109.1 30.7448C109.431 30.5875 109.79 30.498 110.155 30.4815C110.534 30.4583 110.912 30.5478 111.24 30.7388C111.569 30.9297 111.834 31.2136 112.002 31.5549L107.533 33.4187ZM102.098 38.2785H104.298V23.5339H102.098V38.2785ZM98.4993 29.6676H98.4169C98.0884 29.2924 97.6829 28.9927 97.2281 28.7891C96.7734 28.5855 96.2802 28.4828 95.7822 28.4881C94.4969 28.5506 93.2847 29.1066 92.3971 30.0411C91.5094 30.9755 91.0143 32.2166 91.0143 33.5071C91.0143 34.7977 91.5094 36.0388 92.3971 36.9732C93.2847 37.9076 94.4969 38.4637 95.7822 38.5262C96.2809 38.5362 96.7756 38.4357 97.2311 38.2318C97.6865 38.0279 98.0915 37.7256 98.4169 37.3466H98.4993V38.0661C98.4993 39.9888 97.476 41.0151 95.8293 41.0151C95.2792 41.0029 94.7451 40.8272 94.2949 40.51C93.8446 40.1929 93.4985 39.7487 93.3004 39.2339L91.395 40.0242C91.7473 40.9116 92.3598 41.6708 93.1515 42.2015C93.9433 42.7323 94.877 43.0096 95.8293 42.9967C98.4052 42.9967 100.534 41.4751 100.534 37.7713V28.8419H98.4993V29.6676ZM95.9704 36.6035C95.1998 36.5553 94.4764 36.2143 93.9477 35.65C93.419 35.0857 93.1247 34.3404 93.1247 33.5661C93.1247 32.7918 93.419 32.0465 93.9477 31.4822C94.4764 30.9179 95.1998 30.5769 95.9704 30.5287C96.3471 30.545 96.7166 30.6371 97.0571 30.7996C97.3975 30.962 97.7019 31.1915 97.9521 31.4743C98.2023 31.7572 98.3932 32.0876 98.5135 32.4459C98.6338 32.8043 98.6809 33.1832 98.6522 33.5602C98.6843 33.9385 98.6395 34.3194 98.5206 34.6798C98.4018 35.0402 98.2112 35.3727 97.9605 35.6572C97.7099 35.9417 97.4042 36.1722 97.0622 36.3349C96.7201 36.4975 96.3487 36.5889 95.9704 36.6035ZM124.658 23.5339H119.389V38.2785H121.588V32.6873H124.658C125.285 32.7325 125.914 32.6477 126.507 32.4381C127.1 32.2286 127.643 31.8988 128.103 31.4694C128.563 31.04 128.93 30.5202 129.181 29.9423C129.432 29.3644 129.561 28.7409 129.561 28.1106C129.561 27.4803 129.432 26.8568 129.181 26.2789C128.93 25.701 128.563 25.1812 128.103 24.7518C127.643 24.3224 127.1 23.9926 126.507 23.7831C125.914 23.5735 125.285 23.4887 124.658 23.5339ZM124.658 30.6113H121.588V25.5863H124.705C125.036 25.5863 125.363 25.6516 125.668 25.7785C125.974 25.9053 126.251 26.0913 126.485 26.3257C126.719 26.5601 126.904 26.8383 127.031 27.1446C127.157 27.4509 127.222 27.7791 127.222 28.1106C127.222 28.4421 127.157 28.7703 127.031 29.0766C126.904 29.3829 126.719 29.6611 126.485 29.8955C126.251 30.1299 125.974 30.3159 125.668 30.4427C125.363 30.5696 125.036 30.6349 124.705 30.6349L124.658 30.6113ZM138.232 28.4999C137.431 28.4503 136.633 28.6373 135.937 29.0378C135.24 29.4382 134.677 30.0345 134.315 30.7528L136.256 31.5667C136.452 31.2122 136.746 30.9221 137.103 30.7316C137.46 30.5411 137.864 30.4584 138.267 30.4933C138.546 30.4606 138.829 30.484 139.099 30.5621C139.369 30.6402 139.621 30.7715 139.84 30.9483C140.059 31.1251 140.241 31.3438 140.374 31.5918C140.508 31.8397 140.591 32.1119 140.619 32.3924V32.534C139.912 32.1611 139.125 31.9668 138.326 31.9678C136.232 31.9678 134.091 33.1474 134.091 35.2942C134.112 35.7505 134.224 36.198 134.42 36.61C134.617 37.0221 134.894 37.3904 135.235 37.6929C135.577 37.9955 135.975 38.2263 136.407 38.3714C136.839 38.5166 137.295 38.5732 137.749 38.538C138.301 38.5686 138.851 38.4515 139.343 38.1986C139.835 37.9457 140.251 37.5662 140.549 37.0989H140.619V38.2785H142.736V32.6047C142.736 30.0215 140.784 28.5234 138.279 28.5234L138.232 28.4999ZM137.961 36.5799C137.244 36.5799 136.244 36.2142 136.244 35.3296C136.244 34.15 137.491 33.7489 138.596 33.7489C139.295 33.7316 139.985 33.9027 140.596 34.2444C140.522 34.8849 140.219 35.477 139.743 35.9107C139.267 36.3445 138.651 36.5906 138.008 36.6035L137.961 36.5799ZM150.452 28.8419L147.935 35.2352H147.865L145.254 28.8419H142.901L146.818 37.7831L144.583 42.749H146.877L152.899 28.8419H150.452ZM130.692 38.2785H132.88V23.5339H130.692V38.2785Z" fill="white"/>
<path d="M55.0182 18.4426C54.4204 18.1033 53.9266 17.6063 53.5904 17.0055C53.2493 16.3863 53.0704 15.6904 53.0704 14.983C53.0704 14.2755 53.2493 13.5796 53.5904 12.9604C53.9266 12.3596 54.4204 11.8626 55.0182 11.5233C55.6309 11.1773 56.3243 11.0008 57.0274 11.0119C57.5575 10.9996 58.0838 11.1048 58.5686 11.32C59.0534 11.5353 59.4849 11.8553 59.8321 12.2572L59.0136 13.055C58.7749 12.7613 58.4768 12.5217 58.1391 12.3518C57.794 12.1884 57.4166 12.1054 57.0351 12.1089C56.5414 12.1022 56.0546 12.2247 55.6225 12.4643C55.1936 12.7026 54.8402 13.057 54.6026 13.4871C54.3598 13.9518 54.233 14.4686 54.233 14.9932C54.233 15.5178 54.3598 16.0346 54.6026 16.4992C54.84 16.9295 55.1935 17.284 55.6225 17.522C56.0544 17.7624 56.5412 17.8858 57.0351 17.88C57.4561 17.8825 57.8719 17.7865 58.2494 17.5996C58.627 17.4128 58.9558 17.1402 59.21 16.8035L60.0488 17.6141C59.6866 18.0479 59.234 18.397 58.723 18.6369C58.1347 18.9007 57.4933 19.0237 56.8494 18.9962C56.2056 18.9687 55.5769 18.7914 55.0131 18.4784L55.0182 18.4426Z" fill="white"/>
<path d="M61.3695 11.1705H62.5373V14.8653H62.601L65.625 11.1705H67.0911V11.2344L63.8759 15.0469L67.2491 18.729V18.7929H65.7193L62.5908 15.3026H62.5271V18.7929H61.3695V11.1705Z" fill="white"/>
<path d="M70.8494 11.1705H72.1752L75.0513 18.7929H73.7764L73.0753 16.8342H69.9672L69.2736 18.7929H67.9988L70.8494 11.1705ZM72.6851 15.7501L71.8361 13.413L71.5505 12.5385H71.4868L71.1987 13.413L70.3496 15.7501H72.6851Z" fill="white"/>
<path d="M79.4468 15.3972C78.9608 15.8225 78.3322 16.0472 77.6875 16.0262C77.2553 16.0327 76.8278 15.9353 76.4407 15.7424C76.0779 15.5588 75.7759 15.2737 75.5712 14.9216C75.3522 14.5403 75.2419 14.106 75.2525 13.6661V11.1705H76.433V13.4718C76.4204 13.6684 76.4498 13.8655 76.5193 14.0498C76.5888 14.2342 76.6967 14.4015 76.8359 14.5406C77.1326 14.8047 77.5208 14.9415 77.917 14.9216C78.2103 14.9271 78.5009 14.8647 78.7663 14.7392C79.0316 14.6136 79.2645 14.4284 79.4468 14.198V11.1705H80.6044V18.7929H79.4468V15.3972Z" fill="white"/>
<path d="M84.4979 11.1705H85.8263L88.7024 18.7929H87.4275L86.7289 16.8342H83.6182L82.9171 18.7929H81.6422L84.4979 11.1705ZM86.3362 15.7501L85.4872 13.413L85.1991 12.5385H85.1353L84.8497 13.413L84.0007 15.7501H86.3362Z" fill="white"/>
<path d="M90.6758 12.2777H88.5442V11.1705H93.9674V12.2777H91.8435V18.7929H90.6758V12.2777Z" fill="white"/>
<path d="M95.1763 11.1705H96.3466V13.8988H97.958C98.414 13.8944 98.865 13.995 99.2762 14.1928C99.5754 14.3469 99.8397 14.5613 100.052 14.8226C100.265 15.0839 100.422 15.3865 100.512 15.7114C100.603 16.0363 100.625 16.3764 100.578 16.7104C100.531 17.0445 100.416 17.3652 100.24 17.6525C100.002 18.0183 99.6687 18.3119 99.2762 18.5014C98.8652 18.7 98.4142 18.8015 97.958 18.798H95.1763V11.1705ZM98.0447 17.6959C98.3016 17.7009 98.5549 17.6346 98.7765 17.5042C98.9827 17.382 99.1513 17.205 99.2635 16.9928C99.3755 16.7887 99.4343 16.5596 99.4343 16.3267C99.4343 16.0937 99.3755 15.8646 99.2635 15.6606C99.1501 15.4491 98.9818 15.2724 98.7765 15.1492C98.5565 15.014 98.3026 14.9448 98.0447 14.9497H96.3466V17.6857L98.0447 17.6959Z" fill="white"/>
<path d="M104.36 11.1705H105.515V15.387L105.451 16.8547H105.515L108.924 11.1705H110.25V18.7929H109.092V14.4716L109.156 13.0013H109.092L105.632 18.7929H104.358L104.36 11.1705Z" fill="white"/>
<path d="M112.537 18.4732C112.045 18.127 111.696 17.6123 111.556 17.026L112.619 16.6015C112.691 16.9636 112.879 17.2922 113.154 17.5374C113.415 17.7627 113.749 17.8838 114.093 17.8775C114.46 17.8851 114.816 17.7547 115.092 17.5118C115.224 17.4001 115.329 17.2605 115.4 17.1031C115.472 16.9457 115.507 16.7744 115.505 16.6015C115.506 16.3711 115.435 16.146 115.304 15.9572C115.164 15.7562 114.973 15.5964 114.75 15.4943C114.512 15.3782 114.25 15.3195 113.985 15.323H113.384V14.3002H113.947C114.292 14.3121 114.629 14.2017 114.901 13.9883C115.025 13.8842 115.123 13.7526 115.187 13.6039C115.251 13.4552 115.28 13.2935 115.27 13.1317C115.272 12.9852 115.241 12.8402 115.179 12.7075C115.117 12.5747 115.026 12.4575 114.914 12.3646C114.666 12.1544 114.35 12.0441 114.026 12.0552C113.731 12.0464 113.444 12.1485 113.221 12.3416C113.008 12.5223 112.85 12.7587 112.764 13.0243L111.744 12.5973C111.908 12.1591 112.188 11.7744 112.555 11.485C112.98 11.1521 113.508 10.9809 114.047 11.0017C114.471 10.9931 114.891 11.086 115.273 11.2727C115.615 11.4402 115.904 11.6973 116.112 12.0168C116.315 12.3367 116.42 12.7091 116.415 13.0882C116.429 13.4257 116.345 13.7599 116.173 14.0507C116.002 14.3414 115.75 14.5763 115.449 14.7272V14.7912C115.799 14.9475 116.103 15.1935 116.329 15.5046C116.562 15.8367 116.682 16.236 116.67 16.6424C116.675 17.0607 116.558 17.4712 116.334 17.8238C116.11 18.1817 115.792 18.4709 115.416 18.6599C115.012 18.8656 114.564 18.97 114.11 18.9642C113.548 18.9679 112.998 18.7963 112.537 18.4732Z" fill="white"/>
<defs>
<linearGradient id="paint0_linear_36_150" x1="28.2595" y1="11.323" x2="6.44555" y2="33.0748" gradientUnits="userSpaceOnUse">
<stop stop-color="#00A0FF"/>
<stop offset="0.01" stop-color="#00A1FF"/>
<stop offset="0.26" stop-color="#00BEFF"/>
<stop offset="0.51" stop-color="#00D2FF"/>
<stop offset="0.76" stop-color="#00DFFF"/>
<stop offset="1" stop-color="#00E3FF"/>
</linearGradient>
<linearGradient id="paint1_linear_36_150" x1="43.8538" y1="26" x2="12.4964" y2="26" gradientUnits="userSpaceOnUse">
<stop stop-color="#FFE000"/>
<stop offset="0.41" stop-color="#FFBD00"/>
<stop offset="0.78" stop-color="#FFA500"/>
<stop offset="1" stop-color="#FF9C00"/>
</linearGradient>
<linearGradient id="paint2_linear_36_150" x1="32.1869" y1="28.99" x2="2.59906" y2="58.4806" gradientUnits="userSpaceOnUse">
<stop stop-color="#FF3A44"/>
<stop offset="1" stop-color="#C31162"/>
</linearGradient>
<linearGradient id="paint3_linear_36_150" x1="9.46283" y1="0.234005" x2="22.6708" y2="13.4043" gradientUnits="userSpaceOnUse">
<stop stop-color="#32A071"/>
<stop offset="0.07" stop-color="#2DA771"/>
<stop offset="0.48" stop-color="#15CF74"/>
<stop offset="0.8" stop-color="#06E775"/>
<stop offset="1" stop-color="#00F076"/>
</linearGradient>
</defs>
</svg>
