<svg width="144" height="52" viewBox="0 0 144 52" fill="none" xmlns="http://www.w3.org/2000/svg">
<g clip-path="url(#clip0_36_90)">
<mask id="mask0_36_90" style="mask-type:luminance" maskUnits="userSpaceOnUse" x="0" y="0" width="144" height="52">
<path d="M144 0H0V52H144V0Z" fill="white"/>
</mask>
<g mask="url(#mask0_36_90)">
<path d="M138.811 0.649994H5.18922C2.68155 0.649994 0.648682 2.6871 0.648682 5.19999V46.8C0.648682 49.3129 2.68155 51.35 5.18922 51.35H138.811C141.319 51.35 143.351 49.3129 143.351 46.8V5.19999C143.351 2.6871 141.319 0.649994 138.811 0.649994Z" fill="black" stroke="#393E45"/>
<path d="M59.4132 35.5741C61.7623 34.9673 63.3105 33.1516 63.3105 30.7779C63.3105 27.8414 60.9808 25.7761 57.7135 25.7761H51.8918V41.5793H54.578V35.7699H56.4827L60.6487 41.5793H63.8039L59.4132 35.5693V35.5741ZM57.7135 28.2428C59.3936 28.2428 60.556 29.2753 60.556 30.7779C60.556 32.2804 59.3936 33.313 57.7135 33.313H54.578V28.2477H57.7135V28.2428Z" fill="white"/>
<path d="M69.8525 41.8037C71.264 41.8037 72.5632 41.0647 73.3006 39.8313L73.8134 41.5785H75.7377V29.9207H73.1639V36.6697C73.1639 38.3288 72.0651 39.4936 70.5656 39.4936C69.0662 39.4936 68.0602 38.3288 68.0602 36.6697V29.9207H65.4863V36.9585C65.4863 39.7628 67.3666 41.8037 69.8525 41.8037Z" fill="white"/>
<path d="M83.955 41.8032C86.9343 41.8032 89.3958 40.1001 89.3958 37.2761C89.3958 34.1145 86.8219 33.1944 84.6046 32.431C82.8806 31.8486 81.3812 31.3101 81.3812 29.8957C81.3812 28.6624 82.524 28.0115 83.8671 28.0115C85.2785 28.0115 86.2847 28.7505 86.8463 30.0083L89.4007 29.5825C88.5948 27.1159 86.5582 25.5449 83.7793 25.5449C81.0003 25.5449 78.6316 27.2039 78.6316 30.0279C78.6316 33.214 81.2054 34.0851 83.4228 34.8241C85.1223 35.3821 86.6462 35.9204 86.6462 37.3593C86.6462 38.6171 85.5032 39.3316 83.9794 39.3316C82.2311 39.3316 81.2932 38.5046 80.463 37.002L77.8647 37.4523C78.6266 40.1195 81.0442 41.8032 83.955 41.8032Z" fill="white"/>
<path d="M96.3994 39.3376C95.5251 39.3376 95.1002 38.9119 95.1002 38.0358V32.1628H98.5727V29.9213H95.1002V26.559H93.176L92.5264 29.9213H90.6216V32.1628H92.5264V38.0358C92.5264 40.3213 93.845 41.5792 96.3994 41.5792H98.5727L98.7974 39.3376H96.3994Z" fill="white"/>
<path d="M106.152 41.8041C109.801 41.8041 112.374 39.2934 112.374 35.75C112.374 32.2067 109.801 29.696 106.152 29.696C102.504 29.696 99.9302 32.2067 99.9302 35.75C99.9302 39.2934 102.504 41.8041 106.152 41.8041ZM106.152 39.4501C104.047 39.4501 102.616 37.9475 102.616 35.75C102.616 33.5526 104.047 32.0501 106.152 32.0501C108.257 32.0501 109.688 33.5526 109.688 35.75C109.688 37.9475 108.257 39.4501 106.152 39.4501Z" fill="white"/>
<path d="M117.19 41.5785V34.6974C117.19 33.2194 117.908 32.3874 119.476 32.3874H120.956L120.731 29.9207H120.238C118.87 29.9207 117.82 30.3025 117.034 31.6043L116.541 29.9207H114.616V41.5785H117.19Z" fill="white"/>
<path d="M133.622 35.6169C133.622 32.2547 131.116 29.6999 127.575 29.6999C124.034 29.6999 121.529 32.2351 121.529 35.754C121.529 39.2729 124.034 41.808 127.575 41.808C129.993 41.808 132.279 40.6628 133.148 38.4457L130.73 38.0396C130.168 38.8716 129.094 39.454 127.731 39.454C125.763 39.454 124.464 38.2451 124.215 36.4489H133.572C133.597 36.2042 133.616 35.935 133.616 35.6169M127.57 31.9414C129.182 31.9414 130.394 32.9741 130.818 34.4276H124.371C124.796 32.9251 126.007 31.9414 127.575 31.9414" fill="white"/>
<path d="M12.5684 39.4083C14.7584 41.6 18.2787 41.6 25.3245 41.6H26.5675C33.6133 41.6 37.1336 41.6 39.3236 39.4083C41.5136 37.2167 41.5136 33.6856 41.5136 26.6235V25.3765C41.5136 18.3144 41.5136 14.7833 39.3236 12.5917C37.1336 10.4 33.6083 10.4 26.5675 10.4H25.3245C18.2787 10.4 14.7534 10.4 12.5684 12.5917C10.3784 14.7883 10.3784 18.3193 10.3784 25.3765V26.6235C10.3784 33.6856 10.3784 37.2167 12.5684 39.4083Z" fill="#0077FF"/>
<path fill-rule="evenodd" clip-rule="evenodd" d="M34.4152 31.1386L32.3126 30.6127C32.0602 30.5396 31.8805 30.3107 31.8708 30.0477L31.6086 22.289C31.5309 21.2614 30.7734 20.4432 29.977 20.2045C29.9333 20.1899 29.8847 20.2045 29.8605 20.2483C29.8313 20.2873 29.846 20.3408 29.8799 20.3701C30.0741 20.521 30.618 21.0179 30.618 21.8751V32.0202C30.618 32.9991 29.6905 33.7199 28.7388 33.4812L26.6022 32.9455C26.3643 32.8627 26.1993 32.6435 26.1943 32.3855L25.9321 24.6268C25.8544 23.5992 25.0969 22.7809 24.3007 22.5423C24.2569 22.5277 24.2084 22.5423 24.184 22.5861C24.155 22.6251 24.1695 22.6786 24.2035 22.7079C24.3977 22.8588 24.9415 23.3557 24.9415 24.2129V32.668V34.358C24.9415 35.3369 24.019 36.0577 23.0673 35.819L17.0364 34.3092C16.1963 34.0998 15.6088 33.3449 15.6088 32.4828V22.3231C15.6088 21.3442 16.5314 20.6233 17.4831 20.862L21.2852 21.8118V19.9805C21.2852 19.0015 22.2077 18.2806 23.1596 18.5193L26.9615 19.4691V17.6378C26.9615 16.6589 27.8842 15.938 28.8359 16.1767L34.8668 17.6865C35.7068 17.8959 36.2943 18.6508 36.2943 19.5129V29.6726C36.2943 30.6515 35.3718 31.3724 34.42 31.1337" fill="white"/>
<path d="M55.5622 18.3119C54.8249 18.3119 54.1621 18.1403 53.5738 17.797C52.9856 17.4463 52.5239 16.9612 52.1887 16.3419C51.8611 15.7225 51.6973 15.0247 51.6973 14.2486C51.6973 13.4725 51.8611 12.7785 52.1887 12.1666C52.5239 11.5472 52.9819 11.0659 53.5627 10.7226C54.151 10.3719 54.8138 10.1965 55.551 10.1965C56.3478 10.1965 57.0554 10.398 57.6734 10.801C58.299 11.1965 58.7457 11.7338 59.0139 12.4129L57.8745 12.592C57.666 12.1741 57.357 11.8495 56.9473 11.6181C56.5453 11.3793 56.091 11.2599 55.5845 11.2599C55.0632 11.2599 54.5978 11.3868 54.1882 11.6405C53.786 11.8942 53.4696 12.2487 53.2387 12.7039C53.0153 13.1517 52.9036 13.6665 52.9036 14.2486C52.9036 14.8382 53.0153 15.3605 53.2387 15.8158C53.4696 16.2635 53.7898 16.6143 54.1994 16.868C54.6091 17.1216 55.0782 17.2485 55.6069 17.2485C56.1282 17.2485 56.5899 17.1292 56.9921 16.8904C57.4016 16.6442 57.7144 16.3008 57.9304 15.8605L59.0697 16.0397C58.7867 16.7336 58.3288 17.2858 57.6957 17.6962C57.0628 18.1068 56.3516 18.3119 55.5622 18.3119Z" fill="white"/>
<path d="M65.0182 18.2H63.5771L61.4436 15.8046H61.0973V18.2H60.0027V12.4129H61.0973V14.7524H61.4324L63.4766 12.4129H64.7948L62.3149 15.2113L65.0182 18.2Z" fill="white"/>
<path d="M67.7333 12.3009C68.4481 12.3009 69.0104 12.536 69.4201 13.0061C69.837 13.4688 70.0455 14.118 70.0455 14.9539V18.2H69.2636L69.0067 17.2934C68.8206 17.5843 68.5711 17.8269 68.2583 18.021C67.9455 18.2149 67.5695 18.3119 67.1301 18.3119C66.7428 18.3119 66.3966 18.2337 66.0912 18.0769C65.7859 17.9202 65.5476 17.7038 65.3763 17.4277C65.205 17.1441 65.1194 16.8269 65.1194 16.4762C65.1194 15.9314 65.3354 15.4948 65.7673 15.1666C66.1991 14.8382 66.8247 14.674 67.6439 14.674H68.9508C68.921 14.2187 68.7945 13.868 68.5711 13.6218C68.3476 13.368 68.0497 13.2411 67.6774 13.2411C67.3945 13.2411 67.145 13.3084 66.929 13.4426C66.713 13.5771 66.5491 13.7524 66.4374 13.9688L65.421 13.8009C65.5699 13.3383 65.8566 12.9726 66.2811 12.7039C66.7056 12.4353 67.1896 12.3009 67.7333 12.3009ZM67.3646 17.3829C67.8339 17.3829 68.2136 17.2299 68.504 16.9239C68.8019 16.6105 68.9508 16.1815 68.9508 15.6367V15.5694H67.6774C66.7094 15.5694 66.2252 15.8605 66.2252 16.4427C66.2252 16.7262 66.3295 16.9538 66.538 17.1254C66.7466 17.297 67.0221 17.3829 67.3646 17.3829Z" fill="white"/>
<path d="M74.4469 16.0956C74.2682 16.1777 74.056 16.2412 73.8102 16.2859C73.5645 16.3307 73.3224 16.3531 73.0842 16.3531C72.3916 16.3531 71.8592 16.159 71.4867 15.7709C71.1144 15.3829 70.9282 14.8344 70.9282 14.1255V12.4129H72.0229V14.1255C72.0229 14.9539 72.4214 15.3681 73.2182 15.3681C73.7022 15.3681 74.1118 15.2821 74.4469 15.1105V12.4129H75.5417V18.2H74.4469V16.0956Z" fill="white"/>
<path d="M79.2146 12.3009C79.9296 12.3009 80.4918 12.536 80.9014 13.0061C81.3184 13.4688 81.5269 14.118 81.5269 14.9539V18.2H80.745L80.4881 17.2934C80.3019 17.5843 80.0524 17.8269 79.7396 18.021C79.4269 18.2149 79.0508 18.3119 78.6115 18.3119C78.2243 18.3119 77.8779 18.2337 77.5726 18.0769C77.2673 17.9202 77.0289 17.7038 76.8577 17.4277C76.6864 17.1441 76.6008 16.8269 76.6008 16.4762C76.6008 15.9314 76.8167 15.4948 77.2487 15.1666C77.6806 14.8382 78.3061 14.674 79.1252 14.674H80.4323C80.4024 14.2187 80.2758 13.868 80.0524 13.6218C79.829 13.368 79.5312 13.2411 79.1588 13.2411C78.8758 13.2411 78.6263 13.3084 78.4104 13.4426C78.1944 13.5771 78.0306 13.7524 77.9189 13.9688L76.9023 13.8009C77.0514 13.3383 77.3381 12.9726 77.7626 12.7039C78.187 12.4353 78.6711 12.3009 79.2146 12.3009ZM78.8461 17.3829C79.3152 17.3829 79.695 17.2299 79.9855 16.9239C80.2833 16.6105 80.4323 16.1815 80.4323 15.6367V15.5694H79.1588C78.1907 15.5694 77.7066 15.8605 77.7066 16.4427C77.7066 16.7262 77.8109 16.9538 78.0194 17.1254C78.2279 17.297 78.5034 17.3829 78.8461 17.3829Z" fill="white"/>
<path d="M84.4764 18.2H82.8567V12.4129H83.9179V16.9688H84.0855L86.4201 12.4129H88.0398V18.2H86.9786V13.6553H86.811L84.4764 18.2ZM85.4595 11.6629C84.9753 11.6629 84.5695 11.536 84.2418 11.2823C83.9216 11.0211 83.7317 10.6331 83.6722 10.1181H84.5657C84.603 10.3569 84.6961 10.5398 84.8451 10.6666C85.0014 10.7861 85.2062 10.8457 85.4595 10.8457C85.7126 10.8457 85.9136 10.7861 86.0626 10.6666C86.219 10.5398 86.312 10.3569 86.3419 10.1181H87.2467C87.1797 10.6331 86.9824 11.0211 86.6547 11.2823C86.3345 11.536 85.936 11.6629 85.4595 11.6629Z" fill="white"/>
<path d="M91.9567 18.2H90.8621V13.4203H88.8625V12.4129H93.9563V13.4203H91.9567V18.2Z" fill="white"/>
<path d="M100.164 15.2673C100.164 15.4166 100.16 15.5321 100.152 15.6143H95.3826C95.4421 16.1292 95.6432 16.5396 95.9858 16.8455C96.3284 17.1515 96.7641 17.3046 97.2927 17.3046C97.6577 17.3046 97.9816 17.2336 98.2645 17.0919C98.555 16.9426 98.7748 16.7485 98.9237 16.5097L99.9513 16.6777C99.7279 17.2 99.3667 17.603 98.8678 17.8866C98.3764 18.1702 97.8289 18.3119 97.2258 18.3119C96.6524 18.3119 96.1385 18.185 95.6842 17.9314C95.2299 17.6702 94.8762 17.312 94.623 16.8568C94.3698 16.4016 94.2432 15.8866 94.2432 15.312C94.2432 14.73 94.3698 14.2113 94.623 13.7561C94.8762 13.3009 95.2263 12.9464 95.673 12.6927C96.1198 12.4315 96.6299 12.3009 97.2033 12.3009C97.7693 12.3009 98.2758 12.4315 98.7226 12.6927C99.1768 12.9464 99.5306 13.3009 99.7838 13.7561C100.037 14.2039 100.164 14.7075 100.164 15.2673ZM97.2033 13.2748C96.7641 13.2748 96.3842 13.4053 96.0641 13.6665C95.7513 13.9278 95.5427 14.2785 95.4385 14.7187H98.9683C98.8715 14.286 98.6631 13.939 98.3428 13.6778C98.03 13.4091 97.6503 13.2748 97.2033 13.2748Z" fill="white"/>
<path d="M105.083 18.2H103.464V12.4129H104.525V16.9688H104.692L107.027 12.4129H108.647V18.2H107.585V13.6553H107.418L105.083 18.2Z" fill="white"/>
<path d="M113.189 15.2448C113.495 15.3344 113.748 15.4986 113.949 15.7374C114.15 15.9688 114.251 16.2561 114.251 16.5993C114.251 16.9201 114.157 17.2112 113.971 17.4724C113.785 17.7261 113.517 17.9314 113.167 18.0881C112.824 18.2373 112.426 18.3119 111.972 18.3119C111.361 18.3119 110.836 18.1702 110.397 17.8866C109.957 17.5956 109.667 17.2076 109.525 16.7224L110.542 16.5546C110.788 17.0919 111.261 17.3605 111.961 17.3605C112.348 17.3605 112.642 17.2896 112.843 17.1478C113.052 16.9985 113.156 16.7934 113.156 16.5321C113.156 16.3008 113.059 16.1143 112.865 15.9724C112.679 15.8307 112.378 15.7598 111.961 15.7598H111.201V14.7971H111.961C112.318 14.7971 112.59 14.73 112.776 14.5956C112.97 14.4613 113.066 14.2822 113.066 14.0583C113.066 13.8195 112.962 13.6256 112.754 13.4763C112.553 13.3271 112.303 13.2525 112.005 13.2525C111.715 13.2525 111.454 13.3233 111.223 13.4651C110.993 13.6068 110.818 13.8009 110.698 14.0471L109.682 13.868C109.853 13.368 110.147 12.9837 110.564 12.7151C110.989 12.439 111.48 12.3009 112.039 12.3009C112.441 12.3009 112.802 12.3718 113.122 12.5136C113.45 12.6554 113.703 12.8532 113.882 13.1069C114.068 13.3606 114.161 13.6441 114.161 13.9576C114.161 14.2785 114.072 14.5509 113.893 14.7748C113.714 14.9986 113.48 15.1554 113.189 15.2448Z" fill="white"/>
</g>
</g>
<defs>
<clipPath id="clip0_36_90">
<rect width="144" height="52" fill="white"/>
</clipPath>
</defs>
</svg>
