<?xml version="1.0"?>
<svg xmlns="http://www.w3.org/2000/svg" xmlns:xlink="http://www.w3.org/1999/xlink" version="1.1" xml:space="preserve">
  <defs>

    <symbol id="loader" width="100%" height="100%" viewBox="22 22 44 44">
      <circle cx="44" cy="44" r="20.2" fill="transparent" stroke="currentColor" stroke-width="4" />
    </symbol>

    <symbol id="search" width="100%" height="100%" viewBox="0 0 27 27">
      <path d="M12.1127 21.1022C16.8915 21.1022 20.7655 17.2282 20.7655 12.4494C20.7655 7.67061 16.8915 3.79663 12.1127 3.79663C7.33394 3.79663 3.45996 7.67061 3.45996 12.4494C3.45996 17.2282 7.33394 21.1022 12.1127 21.1022Z" fill="transparent" stroke="currentColor" stroke-width="1.94687" stroke-linecap="round" stroke-linejoin="round" />
      <path d="M22.9286 23.2652L18.2236 18.5603" fill="transparent" stroke="currentColor" stroke-width="1.94687" stroke-linecap="round" stroke-linejoin="round" />
    </symbol>

    <symbol id="recording" width="100%" height="100%" viewBox="0 0 18 20">
      <path d="M12.5556 11.9589H4.86422C4.60924 11.9589 4.3647 12.0602 4.1844 12.2405C4.0041 12.4208 3.9028 12.6653 3.9028 12.9203C3.9028 13.1753 4.0041 13.4198 4.1844 13.6001C4.3647 13.7804 4.60924 13.8817 4.86422 13.8817H12.5556C12.8106 13.8817 13.0551 13.7804 13.2354 13.6001C13.4157 13.4198 13.517 13.1753 13.517 12.9203C13.517 12.6653 13.4157 12.4208 13.2354 12.2405C13.0551 12.0602 12.8106 11.9589 12.5556 11.9589ZM12.5556 8.11323H6.78706C6.53208 8.11323 6.28754 8.21452 6.10723 8.39482C5.92693 8.57512 5.82564 8.81966 5.82564 9.07464C5.82564 9.32963 5.92693 9.57417 6.10723 9.75447C6.28754 9.93477 6.53208 10.0361 6.78706 10.0361H12.5556C12.8106 10.0361 13.0551 9.93477 13.2354 9.75447C13.4157 9.57417 13.517 9.32963 13.517 9.07464C13.517 8.81966 13.4157 8.57512 13.2354 8.39482C13.0551 8.21452 12.8106 8.11323 12.5556 8.11323ZM16.4012 2.34471H13.517V1.38329C13.517 1.12831 13.4157 0.883769 13.2354 0.703468C13.0551 0.523167 12.8106 0.421875 12.5556 0.421875C12.3006 0.421875 12.056 0.523167 11.8757 0.703468C11.6954 0.883769 11.5942 1.12831 11.5942 1.38329V2.34471H9.67132V1.38329C9.67132 1.12831 9.57002 0.883769 9.38972 0.703468C9.20942 0.523167 8.96488 0.421875 8.7099 0.421875C8.45491 0.421875 8.21037 0.523167 8.03007 0.703468C7.84977 0.883769 7.74848 1.12831 7.74848 1.38329V2.34471H5.82564V1.38329C5.82564 1.12831 5.72435 0.883769 5.54405 0.703468C5.36375 0.523167 5.11921 0.421875 4.86422 0.421875C4.60924 0.421875 4.3647 0.523167 4.1844 0.703468C4.0041 0.883769 3.9028 1.12831 3.9028 1.38329V2.34471H1.01855C0.763564 2.34471 0.519023 2.446 0.338722 2.62631C0.158421 2.80661 0.0571289 3.05115 0.0571289 3.30613V16.766C0.0571289 17.5309 0.361005 18.2646 0.901908 18.8055C1.44281 19.3464 2.17643 19.6503 2.94139 19.6503H14.4784C15.2434 19.6503 15.977 19.3464 16.5179 18.8055C17.0588 18.2646 17.3627 17.5309 17.3627 16.766V3.30613C17.3627 3.05115 17.2614 2.80661 17.0811 2.62631C16.9008 2.446 16.6562 2.34471 16.4012 2.34471ZM15.4398 16.766C15.4398 17.021 15.3385 17.2655 15.1582 17.4458C14.9779 17.6261 14.7334 17.7274 14.4784 17.7274H2.94139C2.6864 17.7274 2.44186 17.6261 2.26156 17.4458C2.08126 17.2655 1.97997 17.021 1.97997 16.766V4.26755H3.9028V5.22897C3.9028 5.48395 4.0041 5.72849 4.1844 5.90879C4.3647 6.0891 4.60924 6.19039 4.86422 6.19039C5.11921 6.19039 5.36375 6.0891 5.54405 5.90879C5.72435 5.72849 5.82564 5.48395 5.82564 5.22897V4.26755H7.74848V5.22897C7.74848 5.48395 7.84977 5.72849 8.03007 5.90879C8.21037 6.0891 8.45491 6.19039 8.7099 6.19039C8.96488 6.19039 9.20942 6.0891 9.38972 5.90879C9.57002 5.72849 9.67132 5.48395 9.67132 5.22897V4.26755H11.5942V5.22897C11.5942 5.48395 11.6954 5.72849 11.8757 5.90879C12.056 6.0891 12.3006 6.19039 12.5556 6.19039C12.8106 6.19039 13.0551 6.0891 13.2354 5.90879C13.4157 5.72849 13.517 5.48395 13.517 5.22897V4.26755H15.4398V16.766Z" fill="currentColor" />
    </symbol>

    <symbol id="home" width="100%" height="100%" viewBox="0 0 20 22">
      <path d="M18.6719 6.86043L12.1823 1.17124C11.5874 0.63914 10.8173 0.344971 10.0191 0.344971C9.22099 0.344971 8.45085 0.63914 7.85594 1.17124L1.36637 6.86043C1.02282 7.16769 0.748667 7.5446 0.562169 7.96609C0.375672 8.38757 0.281107 8.84395 0.28477 9.30484V18.758C0.28477 19.6186 0.626631 20.4439 1.23515 21.0524C1.84366 21.6609 2.66899 22.0028 3.52956 22.0028H16.5087C17.3693 22.0028 18.1946 21.6609 18.8031 21.0524C19.4116 20.4439 19.7535 19.6186 19.7535 18.758V9.29402C19.7556 8.83495 19.6603 8.38066 19.4739 7.96115C19.2874 7.54165 19.0141 7.16648 18.6719 6.86043ZM12.1823 19.8396H7.85594V14.4316C7.85594 14.1447 7.9699 13.8696 8.17274 13.6668C8.37557 13.464 8.65068 13.35 8.93754 13.35H11.1007C11.3876 13.35 11.6627 13.464 11.8655 13.6668C12.0684 13.8696 12.1823 14.1447 12.1823 14.4316V19.8396ZM17.5903 18.758C17.5903 19.0448 17.4764 19.32 17.2735 19.5228C17.0707 19.7256 16.7956 19.8396 16.5087 19.8396H14.3455V14.4316C14.3455 13.571 14.0037 12.7457 13.3951 12.1372C12.7866 11.5287 11.9613 11.1868 11.1007 11.1868H8.93754C8.07697 11.1868 7.25164 11.5287 6.64313 12.1372C6.03461 12.7457 5.69275 13.571 5.69275 14.4316V19.8396H3.52956C3.2427 19.8396 2.96759 19.7256 2.76476 19.5228C2.56192 19.32 2.44796 19.0448 2.44796 18.758V9.29402C2.44816 9.14045 2.48105 8.98868 2.54446 8.84882C2.60787 8.70895 2.70033 8.58418 2.81571 8.48283L9.30528 2.80445C9.50266 2.63105 9.75641 2.53542 10.0191 2.53542C10.2819 2.53542 10.5356 2.63105 10.733 2.80445L17.2226 8.48283C17.3379 8.58418 17.4304 8.70895 17.4938 8.84882C17.5572 8.98868 17.5901 9.14045 17.5903 9.29402V18.758Z" fill="currentColor" />
    </symbol>

    <symbol id="message" width="100%" height="100%" viewBox="0 0 22 22">
      <path d="M11.1539 0.344971C9.73556 0.344971 8.33108 0.624734 7.02067 1.16829C5.71027 1.71184 4.5196 2.50854 3.51666 3.51289C1.49113 5.54128 0.353197 8.29236 0.353197 11.1609C0.343755 13.6585 1.20731 16.0806 2.79416 18.0074L0.634017 20.1706C0.484148 20.3227 0.382625 20.5159 0.342258 20.7257C0.301891 20.9355 0.324489 21.1526 0.407201 21.3496C0.49691 21.5442 0.642337 21.7077 0.825024 21.8194C1.00771 21.9311 1.21942 21.9859 1.43327 21.9769H11.1539C14.0185 21.9769 16.7657 20.8374 18.7912 18.809C20.8167 16.7806 21.9547 14.0295 21.9547 11.1609C21.9547 8.29236 20.8167 5.54128 18.7912 3.51289C16.7657 1.48451 14.0185 0.344971 11.1539 0.344971ZM11.1539 19.8137H4.03625L5.04072 18.8078C5.24188 18.6052 5.3548 18.331 5.3548 18.0453C5.3548 17.7595 5.24188 17.4854 5.04072 17.2828C3.62645 15.8681 2.74575 14.0061 2.54865 12.0141C2.35156 10.0221 2.85027 8.02323 3.95981 6.35813C5.06935 4.69303 6.72109 3.46468 8.6336 2.88237C10.5461 2.30005 12.6011 2.39979 14.4484 3.1646C16.2957 3.9294 17.8211 5.31196 18.7646 7.07671C19.7081 8.84146 20.0115 10.8792 19.6229 12.8428C19.2344 14.8064 18.178 16.5744 16.6337 17.8455C15.0895 19.1165 13.1529 19.8121 11.1539 19.8137Z" fill="currentColor" />
    </symbol>

    <symbol id="service" width="100%" height="100%" viewBox="0 0 31 21">
      <path d="M30.3725 18.4981L30.3738 18.4993C30.4667 18.5892 30.5408 18.6967 30.5917 18.8155C30.6427 18.9343 30.6694 19.062 30.6705 19.1913C30.6715 19.3205 30.6468 19.4487 30.5977 19.5683C30.5487 19.6879 30.4763 19.7965 30.3849 19.8878C30.2934 19.9792 30.1847 20.0514 30.065 20.1002C29.9454 20.1491 29.8172 20.1736 29.6879 20.1724C29.5587 20.1712 29.4309 20.1443 29.3122 20.0932C29.1935 20.0421 29.0861 19.9678 28.9964 19.8748L28.9964 19.8748L28.995 19.8734L25.1229 16.0013L25.0555 15.9338L24.9801 15.9923C23.2631 17.3251 21.1028 17.9535 18.9388 17.7495C16.7748 17.5455 14.7699 16.5246 13.3323 14.8944C11.8946 13.2643 11.1322 11.1475 11.2002 8.97498C11.2683 6.80249 12.1618 4.7376 13.6987 3.20067C15.2356 1.66373 17.3005 0.77028 19.473 0.7022C21.6455 0.63412 23.7623 1.39653 25.3925 2.83421C27.0226 4.2719 28.0436 6.2768 28.2476 8.44076C28.4515 10.6047 27.8232 12.7651 26.4904 14.4821L26.4319 14.5574L26.4993 14.6249L26.5004 14.6259L30.3725 18.4981ZM19.7412 15.8409C20.6076 15.8409 21.4656 15.6702 22.266 15.3387C23.0665 15.0071 23.7939 14.5211 24.4065 13.9085C25.0192 13.2958 25.5052 12.5685 25.8367 11.768C26.1683 10.9675 26.3389 10.1096 26.3389 9.24316C26.3389 8.37673 26.1683 7.51879 25.8367 6.71831C25.5052 5.91784 25.0192 5.19051 24.4065 4.57785C23.7939 3.9652 23.0665 3.47921 22.266 3.14764C21.4656 2.81608 20.6076 2.64542 19.7412 2.64542C17.9914 2.64542 16.3132 3.34054 15.0759 4.57785C13.8386 5.81517 13.1435 7.49333 13.1435 9.24316C13.1435 10.993 13.8386 12.6711 15.0759 13.9085C16.3132 15.1458 17.9914 15.8409 19.7412 15.8409Z" fill="currentColor" stroke="currentColor" stroke-width="0.216319" />
      <rect x="0.224126" y="0.698003" width="9.36121" height="2.37868" rx="1.18934" fill="currentColor" stroke="currentColor" stroke-width="0.216319" />
      <rect x="0.224126" y="8.74317" width="6.77527" height="2.37868" rx="1.18934" fill="currentColor" stroke="currentColor" stroke-width="0.216319" />
      <rect x="0.224126" y="16.7886" width="9.36121" height="2.37868" rx="1.18934" fill="currentColor" stroke="currentColor" stroke-width="0.216319" />
    </symbol>

    <symbol id="bell" width="100%" height="100%" viewBox="0 0 23 25">
      <path d="M21.1126 17.5964H20.0851V8.99775C20.0851 4.19696 16.179 0.290891 11.3783 0.290891C6.57746 0.290891 2.67139 4.19696 2.67139 8.99775V17.5964H1.64386C1.01587 17.5964 0.508176 18.1041 0.508176 18.7321C0.508176 19.3601 1.01587 19.8678 1.64386 19.8678H2.72547H6.99811C7.02717 22.2588 8.98042 24.1942 11.3783 24.1942C13.7761 24.1942 15.7293 22.2588 15.7584 19.8678H20.031H21.1126C21.7406 19.8678 22.2483 19.3601 22.2483 18.7321C22.2483 18.1041 21.7406 17.5964 21.1126 17.5964ZM11.3783 21.9228C10.2332 21.9228 9.29862 21.006 9.26984 19.8678H13.4867C13.4579 21.006 12.5233 21.9228 11.3783 21.9228ZM17.8137 17.5964H15.7046H7.05186H4.94277V8.99775C4.94277 5.44864 7.82914 2.56227 11.3783 2.56227C14.9274 2.56227 17.8137 5.44864 17.8137 8.99775V17.5964Z" fill="currentColor" stroke="currentColor" stroke-width="0.10816" />
    </symbol>

    <symbol id="arrow-back" width="100%" height="100%" viewBox="0 0 17 14">
      <path d="M7.03461 1.42773L1.52637 6.93598M1.52637 6.93598L7.03461 12.4442M1.52637 6.93598H16.0481" fill="transparent" stroke="currentColor" stroke-width="2.003" />
    </symbol>

    <symbol id="arrow-left" width="100%" height="100%" viewBox="0 0 24 24">
      <path d="M9.76777 12L15.8839 18.1161C16.372 18.6043 16.372 19.3957 15.8839 19.8839C15.3957 20.372 14.6043 20.372 14.1161 19.8839L7.11612 12.8839C6.62796 12.3957 6.62796 11.6043 7.11612 11.1161L14.1161 4.11612C14.6043 3.62796 15.3957 3.62796 15.8839 4.11612C16.372 4.60427 16.372 5.39573 15.8839 5.88388L9.76777 12Z" fill="currentColor" />
    </symbol>

    <symbol id="arrow-right" width="100%" height="100%" viewBox="0 0 24 24">
      <path d="M14.2322 12L8.11612 5.88388C7.62796 5.39573 7.62796 4.60427 8.11612 4.11612C8.60427 3.62796 9.39573 3.62796 9.88388 4.11612L16.8839 11.1161C17.372 11.6043 17.372 12.3957 16.8839 12.8839L9.88388 19.8839C9.39573 20.372 8.60427 20.372 8.11612 19.8839C7.62796 19.3957 7.62796 18.6043 8.11612 18.1161L14.2322 12Z" fill="currentColor" />
    </symbol>

    <symbol id="filters" width="100%" height="100%" viewBox="0 0 25 24">
      <path d="M13.4604 7.55935C13.4604 9.24553 12.0188 10.6839 10.1504 10.6839C8.28208 10.6839 6.84055 9.24553 6.84055 7.55935C6.84055 5.87317 8.28208 4.43478 10.1504 4.43478C12.0188 4.43478 13.4604 5.87317 13.4604 7.55935Z" fill="transparent" stroke="currentColor" stroke-width="1.9057" />
      <rect x="4.36322" y="6.55365" width="3.31795" height="2.01153" rx="1.00577" fill="currentColor" stroke="currentColor" stroke-width="0.3009" />
      <path d="M12.5143 16.5285C12.5143 14.8424 13.9558 13.404 15.8242 13.404C17.6925 13.404 19.1341 14.8424 19.1341 16.5285C19.1341 18.2147 17.6925 19.6531 15.8242 19.6531C13.9558 19.6531 12.5143 18.2147 12.5143 16.5285Z" fill="transparent" stroke="currentColor" stroke-width="1.9057" />
      <rect x="13.3329" y="6.55365" width="7.85975" height="2.01153" rx="1.00577" fill="currentColor" stroke="currentColor" stroke-width="0.3009" />
      <rect x="12.6417" y="17.5342" width="7.86353" height="2.01153" rx="1.00577" transform="rotate(-180 12.6417 17.5342)" fill="currentColor" stroke="currentColor" stroke-width="0.3009" />
      <rect x="21.5176" y="17.5342" width="2.85001" height="2.01153" rx="1.00577" transform="rotate(-180 21.5176 17.5342)" fill="currentColor" stroke="currentColor" stroke-width="0.3009" />
    </symbol>

    <symbol id="star" width="100%" height="100%" viewBox="0 0 16 16">
      <path d="M8.00042 13.2665L3.05682 16L4.00101 10.2114L0 6.11116L5.52741 5.26653L8.00042 0L10.4726 5.26653L16 6.11116L11.9998 10.2114L12.9448 16L8.00042 13.2665Z" fill="currentColor" />
    </symbol>

    <symbol id="dots" width="100%" height="100%" viewBox="0 0 5 18">
      <path fill-rule="evenodd" clip-rule="evenodd" d="M2.83301 -1.33428e-07C3.93701 -5.97757e-08 4.83301 0.896003 4.83301 2.00001C4.83301 3.10401 3.93701 4.00001 2.83301 4.00001C1.72901 4.00001 0.833007 3.10401 0.833007 2.00001C0.833007 0.896002 1.72901 -2.0708e-07 2.83301 -1.33428e-07ZM4.83301 8.99991C4.83301 7.8959 3.93701 6.9999 2.83301 6.9999C1.72901 6.9999 0.833008 7.8959 0.833008 8.99991C0.833008 10.1039 1.72901 10.9999 2.83301 10.9999C3.93701 10.9999 4.83301 10.1039 4.83301 8.99991ZM4.83301 16C4.83301 14.896 3.93701 14 2.83301 14C1.72901 14 0.833007 14.896 0.833007 16C0.833007 17.104 1.72901 18 2.83301 18C3.93701 18 4.83301 17.104 4.83301 16Z" fill="currentColor" />
    </symbol>

    <symbol id="heart" width="100%" height="100%" viewBox="0 0 20 19">
      <path fill-rule="evenodd" clip-rule="evenodd" d="M19.4762 3.52259C18.5276 1.38276 16.5232 0 14.37 0C12.2181 0 10.8223 0.956624 9.99995 1.99293C9.17762 0.956624 7.78181 0 5.63017 0C3.47692 0 1.47249 1.38276 0.523655 3.52259C-0.464253 5.75079 -0.0379735 8.23261 1.66389 10.1621C5.74041 14.784 9.34297 18.0607 9.37878 18.0931C9.55553 18.2534 9.77785 18.3333 9.99995 18.3333C10.2223 18.3333 10.4444 18.2534 10.6211 18.0931C10.6569 18.0607 14.2595 14.784 18.336 10.1621C20.0379 8.23261 20.4644 5.75079 19.4762 3.52259Z" fill="currentColor" />
    </symbol>

    <symbol id="message" width="100%" height="100%" viewBox="0 0 17 16">
      <path d="M8.40564 0C7.02663 0.000398108 5.67112 0.357183 4.47061 1.03575C3.27009 1.71431 2.26532 2.69162 1.55376 3.87287C0.842193 5.05413 0.44799 6.39923 0.409386 7.77771C0.370783 9.15618 0.689088 10.5212 1.33343 11.7405L0.733472 13.8402C0.660883 14.0942 0.657544 14.363 0.723801 14.6187C0.790057 14.8745 0.923499 15.1078 1.1103 15.2946C1.29709 15.4815 1.53045 15.6149 1.78618 15.6812C2.04192 15.7475 2.31072 15.7441 2.56474 15.6716L4.66466 15.0716C5.73829 15.6395 6.92713 15.9555 8.14104 15.9956C9.35495 16.0358 10.5621 15.7989 11.6708 15.3032C12.7796 14.8074 13.7609 14.0656 14.5404 13.1342C15.3199 12.2027 15.8771 11.106 16.1697 9.92723C16.4623 8.74842 16.4826 7.51847 16.2292 6.33064C15.9757 5.1428 15.4551 4.02827 14.7069 3.07155C13.9586 2.11483 13.0024 1.34104 11.9106 0.808852C10.8188 0.276666 9.62022 5.71878e-05 8.40564 0ZM8.40564 14.2212C7.28842 14.222 6.19164 13.9215 5.23084 13.3514C5.12673 13.2895 5.01106 13.2495 4.89094 13.2339C4.77082 13.2183 4.64878 13.2274 4.5323 13.2606L2.58926 13.8158L3.14433 11.8728C3.1776 11.7563 3.18671 11.6343 3.17111 11.5141C3.1555 11.394 3.11552 11.2784 3.0536 11.1743C2.35291 9.99358 2.06238 8.61429 2.22727 7.25127C2.39216 5.88825 3.00321 4.61802 3.96524 3.63847C4.92726 2.65892 6.18624 2.02503 7.54607 1.83556C8.90589 1.64608 10.2902 1.91166 11.4834 2.59092C12.6765 3.27017 13.6115 4.32497 14.1427 5.591C14.674 6.85703 14.7716 8.2632 14.4203 9.59048C14.0691 10.9178 13.2887 12.0916 12.2008 12.9292C11.113 13.7667 9.7786 14.221 8.40564 14.2212ZM6.03545 7.99919C6.03545 8.23357 5.96594 8.4627 5.83572 8.65759C5.7055 8.85248 5.52042 9.00437 5.30387 9.09407C5.08732 9.18377 4.84904 9.20724 4.61915 9.16151C4.38926 9.11578 4.1781 9.00291 4.01236 8.83718C3.84662 8.67144 3.73375 8.46027 3.68803 8.23039C3.6423 8.0005 3.66577 7.76222 3.75546 7.54567C3.84516 7.32912 3.99706 7.14403 4.19195 7.01381C4.38684 6.88359 4.61596 6.81409 4.85035 6.81409C5.16455 6.81444 5.46578 6.93941 5.68795 7.16158C5.91013 7.38376 6.0351 7.68499 6.03545 7.99919ZM9.59074 7.99919C9.59074 8.23357 9.52124 8.4627 9.39102 8.65759C9.2608 8.85248 9.07571 9.00437 8.85916 9.09407C8.64261 9.18377 8.40433 9.20724 8.17444 9.16151C7.94456 9.11578 7.73339 9.00291 7.56765 8.83718C7.40192 8.67144 7.28905 8.46027 7.24332 8.23039C7.19759 8.0005 7.22106 7.76222 7.31076 7.54567C7.40045 7.32912 7.55235 7.14403 7.74724 7.01381C7.94213 6.88359 8.17125 6.81409 8.40564 6.81409C8.71984 6.81444 9.02107 6.93941 9.24324 7.16158C9.46542 7.38376 9.59039 7.68499 9.59074 7.99919ZM13.146 7.99919C13.146 8.23357 13.0765 8.4627 12.9463 8.65759C12.8161 8.85248 12.631 9.00437 12.4145 9.09407C12.1979 9.18377 11.9596 9.20724 11.7297 9.16151C11.4998 9.11578 11.2887 9.00291 11.1229 8.83718C10.9572 8.67144 10.8443 8.46027 10.7986 8.23039C10.7529 8.0005 10.7764 7.76222 10.866 7.54567C10.9557 7.32912 11.1076 7.14403 11.3025 7.01381C11.4974 6.88359 11.7265 6.81409 11.9609 6.81409C12.2751 6.81444 12.5764 6.93941 12.7985 7.16158C13.0207 7.38376 13.1457 7.68499 13.146 7.99919Z" fill="currentColor" />
    </symbol>

    <symbol id="telephone" width="100%" height="100%" viewBox="0 0 17 17">
      <path d="M15.9698 12.2304V14.4885C15.9707 14.6981 15.9277 14.9056 15.8437 15.0977C15.7598 15.2898 15.6366 15.4622 15.4821 15.6039C15.3277 15.7456 15.1453 15.8535 14.9467 15.9207C14.7481 15.9878 14.5377 16.0128 14.3289 15.9939C12.0127 15.7422 9.78788 14.9508 7.83311 13.6831C6.01446 12.5274 4.47255 10.9855 3.3169 9.16689C2.04482 7.20324 1.25318 4.96756 1.00611 2.64096C0.9873 2.43282 1.01204 2.22303 1.07875 2.02497C1.14545 1.82691 1.25267 1.6449 1.39357 1.49055C1.53448 1.33619 1.70598 1.21287 1.89715 1.12843C2.08833 1.04398 2.29499 1.00027 2.50399 1.00007H4.76209C5.12738 0.996478 5.48152 1.12583 5.75849 1.36403C6.03546 1.60222 6.21637 1.93301 6.26749 2.29472C6.3628 3.01736 6.53956 3.72691 6.79439 4.40981C6.89566 4.67922 6.91757 4.97202 6.85754 5.2535C6.79751 5.53498 6.65804 5.79336 6.45567 5.99801L5.49974 6.95394C6.57125 8.83837 8.13153 10.3986 10.0159 11.4702L10.9719 10.5142C11.1765 10.3118 11.4349 10.1724 11.7164 10.1123C11.9979 10.0523 12.2907 10.0742 12.5601 10.1755C13.243 10.4303 13.9525 10.6071 14.6752 10.7024C15.0408 10.754 15.3747 10.9381 15.6134 11.2199C15.8521 11.5016 15.979 11.8612 15.9698 12.2304Z" fill="transparent" stroke="currentColor" stroke-width="1.6" stroke-linecap="round" stroke-linejoin="round" />
    </symbol>

    <symbol id="settings" width="100%" height="100%" viewBox="0 0 18 16">
      <path fill-rule="evenodd" clip-rule="evenodd" d="M16.2 3.57324L14.9625 5.54199C15.1442 5.76908 15.2525 6.05729 15.3467 6.30791C15.3692 6.36769 15.3908 6.42533 15.4125 6.47949L18 7.22949V9.10449L15.4125 9.85449C15.3 10.2295 15.1875 10.6045 14.9625 10.8857L16.2 12.8545L14.625 14.167L12.2625 13.1357C12.0375 13.1826 11.8406 13.2529 11.6438 13.3232C11.4469 13.3936 11.25 13.4639 11.025 13.5107L10.125 15.667H7.875L6.975 13.5107C6.525 13.417 6.075 13.3232 5.7375 13.1357L3.375 14.167L1.8 12.8545L3.0375 10.8857C2.98125 10.6982 2.89687 10.5342 2.8125 10.3701C2.72813 10.2061 2.64375 10.042 2.5875 9.85449L0 9.10449V7.22949L2.5875 6.47949C2.60917 6.42533 2.63083 6.36769 2.6533 6.30791C2.7475 6.05728 2.85583 5.76908 3.0375 5.54199L1.8 3.57324L3.4875 2.16699L5.85 3.19824C6.1225 3.04685 6.46835 2.95658 6.7691 2.87808C6.84083 2.85935 6.91 2.8413 6.975 2.82324L7.875 0.666992H10.125L11.025 2.91699C11.475 3.01074 11.925 3.10449 12.2625 3.29199L14.625 2.26074L16.2 3.57324ZM5.625 8.16703C5.625 9.76078 7.0875 10.9795 9 10.9795C10.9125 10.9795 12.375 9.76078 12.375 8.16703C12.375 6.57328 10.9125 5.35453 9 5.35453C7.0875 5.35453 5.625 6.57328 5.625 8.16703Z" fill="currentColor" />
    </symbol>

    <symbol id="success" width="100%" height="100%" viewBox="0 0 16 16">
      <circle cx="8" cy="8" r="8" fill="white" />
      <path d="M8 0C12.4183 0 16 3.58172 16 8C16 12.4183 12.4183 16 8 16C3.58172 16 0 12.4183 0 8C0 3.58172 3.58172 0 8 0ZM10.4636 5.6636L6.9 9.22721L5.5364 7.8636C5.18492 7.51213 4.61508 7.51213 4.2636 7.8636C3.91213 8.21508 3.91213 8.78492 4.2636 9.1364L6.2636 11.1364C6.61508 11.4879 7.18492 11.4879 7.5364 11.1364L11.7364 6.9364C12.0879 6.58492 12.0879 6.01508 11.7364 5.6636C11.3849 5.31213 10.8151 5.31213 10.4636 5.6636Z" fill="currentColor" />
    </symbol>

    <symbol id="checkbox" width="100%" height="100%" viewBox="0 0 24 24">
      <path fill-rule="evenodd" clip-rule="evenodd" d="M9.5924 3.20027C9.34888 3.4078 9.22711 3.51158 9.09706 3.59874C8.79896 3.79854 8.46417 3.93721 8.1121 4.00672C7.95851 4.03705 7.79903 4.04977 7.48008 4.07522C6.6787 4.13918 6.278 4.17115 5.94371 4.28923C5.17051 4.56233 4.56233 5.17051 4.28923 5.94371C4.17115 6.278 4.13918 6.6787 4.07522 7.48008C4.04977 7.79903 4.03705 7.95851 4.00672 8.1121C3.93721 8.46417 3.79854 8.79896 3.59874 9.09706C3.51158 9.22711 3.40781 9.34887 3.20027 9.5924C2.67883 10.2043 2.4181 10.5102 2.26522 10.8301C1.91159 11.57 1.91159 12.43 2.26522 13.1699C2.41811 13.4898 2.67883 13.7957 3.20027 14.4076C3.40778 14.6511 3.51158 14.7729 3.59874 14.9029C3.79854 15.201 3.93721 15.5358 4.00672 15.8879C4.03705 16.0415 4.04977 16.201 4.07522 16.5199C4.13918 17.3213 4.17115 17.722 4.28923 18.0563C4.56233 18.8295 5.17051 19.4377 5.94371 19.7108C6.278 19.8288 6.6787 19.8608 7.48008 19.9248C7.79903 19.9502 7.95851 19.963 8.1121 19.9933C8.46417 20.0628 8.79896 20.2015 9.09706 20.4013C9.22711 20.4884 9.34887 20.5922 9.5924 20.7997C10.2043 21.3212 10.5102 21.5819 10.8301 21.7348C11.57 22.0884 12.43 22.0884 13.1699 21.7348C13.4898 21.5819 13.7957 21.3212 14.4076 20.7997C14.6511 20.5922 14.7729 20.4884 14.9029 20.4013C15.201 20.2015 15.5358 20.0628 15.8879 19.9933C16.0415 19.963 16.201 19.9502 16.5199 19.9248C17.3213 19.8608 17.722 19.8288 18.0563 19.7108C18.8295 19.4377 19.4377 18.8295 19.7108 18.0563C19.8288 17.722 19.8608 17.3213 19.9248 16.5199C19.9502 16.201 19.963 16.0415 19.9933 15.8879C20.0628 15.5358 20.2015 15.201 20.4013 14.9029C20.4884 14.7729 20.5922 14.6511 20.7997 14.4076C21.3212 13.7957 21.5819 13.4898 21.7348 13.1699C22.0884 12.43 22.0884 11.57 21.7348 10.8301C21.5819 10.5102 21.3212 10.2043 20.7997 9.5924C20.5922 9.34887 20.4884 9.22711 20.4013 9.09706C20.2015 8.79896 20.0628 8.46417 19.9933 8.1121C19.963 7.95851 19.9502 7.79903 19.9248 7.48008C19.8608 6.6787 19.8288 6.278 19.7108 5.94371C19.4377 5.17051 18.8295 4.56233 18.0563 4.28923C17.722 4.17115 17.3213 4.13918 16.5199 4.07522C16.201 4.04977 16.0415 4.03705 15.8879 4.00672C15.5358 3.93721 15.201 3.79854 14.9029 3.59874C14.7729 3.51158 14.6511 3.40781 14.4076 3.20027C13.7957 2.67883 13.4898 2.41811 13.1699 2.26522C12.43 1.91159 11.57 1.91159 10.8301 2.26522C10.5102 2.4181 10.2043 2.67883 9.5924 3.20027ZM16.3735 9.86314C16.6913 9.5453 16.6913 9.03 16.3735 8.71216C16.0557 8.39433 15.5403 8.39433 15.2225 8.71216L10.3723 13.5624L8.77746 11.9676C8.45963 11.6498 7.94432 11.6498 7.62649 11.9676C7.30866 12.2854 7.30866 12.8007 7.62649 13.1186L9.79678 15.2889C10.1146 15.6067 10.6299 15.6067 10.9478 15.2889L16.3735 9.86314Z" fill="currentColor" />
    </symbol>

    <symbol id="user" width="100%" height="100%" viewBox="0 0 24 24">
      <circle cx="12" cy="6" r="4" fill="currentColor" />
      <ellipse cx="12" cy="17" rx="7" ry="4" fill="currentColor" />
    </symbol>

  </defs>
</svg>