<?xml version="1.0"?>
<svg xmlns="http://www.w3.org/2000/svg" xmlns:xlink="http://www.w3.org/1999/xlink" version="1.1" xml:space="preserve">
  <defs>

    <symbol id="loader" width="100%" height="100%" viewBox="22 22 44 44">
      <circle cx="44" cy="44" r="20.2" fill="transparent" stroke="currentColor" stroke-width="4" />
    </symbol>

    <symbol id="search" width="100%" height="100%" viewBox="0 0 27 27">
      <path d="M12.1127 21.1022C16.8915 21.1022 20.7655 17.2282 20.7655 12.4494C20.7655 7.67061 16.8915 3.79663 12.1127 3.79663C7.33394 3.79663 3.45996 7.67061 3.45996 12.4494C3.45996 17.2282 7.33394 21.1022 12.1127 21.1022Z" fill="transparent" stroke="currentColor" stroke-width="1.94687" stroke-linecap="round" stroke-linejoin="round" />
      <path d="M22.9286 23.2652L18.2236 18.5603" fill="transparent" stroke="currentColor" stroke-width="1.94687" stroke-linecap="round" stroke-linejoin="round" />
    </symbol>

    <symbol id="recording" width="100%" height="100%" viewBox="0 0 18 20">
      <path d="M12.5556 11.9589H4.86422C4.60924 11.9589 4.3647 12.0602 4.1844 12.2405C4.0041 12.4208 3.9028 12.6653 3.9028 12.9203C3.9028 13.1753 4.0041 13.4198 4.1844 13.6001C4.3647 13.7804 4.60924 13.8817 4.86422 13.8817H12.5556C12.8106 13.8817 13.0551 13.7804 13.2354 13.6001C13.4157 13.4198 13.517 13.1753 13.517 12.9203C13.517 12.6653 13.4157 12.4208 13.2354 12.2405C13.0551 12.0602 12.8106 11.9589 12.5556 11.9589ZM12.5556 8.11323H6.78706C6.53208 8.11323 6.28754 8.21452 6.10723 8.39482C5.92693 8.57512 5.82564 8.81966 5.82564 9.07464C5.82564 9.32963 5.92693 9.57417 6.10723 9.75447C6.28754 9.93477 6.53208 10.0361 6.78706 10.0361H12.5556C12.8106 10.0361 13.0551 9.93477 13.2354 9.75447C13.4157 9.57417 13.517 9.32963 13.517 9.07464C13.517 8.81966 13.4157 8.57512 13.2354 8.39482C13.0551 8.21452 12.8106 8.11323 12.5556 8.11323ZM16.4012 2.34471H13.517V1.38329C13.517 1.12831 13.4157 0.883769 13.2354 0.703468C13.0551 0.523167 12.8106 0.421875 12.5556 0.421875C12.3006 0.421875 12.056 0.523167 11.8757 0.703468C11.6954 0.883769 11.5942 1.12831 11.5942 1.38329V2.34471H9.67132V1.38329C9.67132 1.12831 9.57002 0.883769 9.38972 0.703468C9.20942 0.523167 8.96488 0.421875 8.7099 0.421875C8.45491 0.421875 8.21037 0.523167 8.03007 0.703468C7.84977 0.883769 7.74848 1.12831 7.74848 1.38329V2.34471H5.82564V1.38329C5.82564 1.12831 5.72435 0.883769 5.54405 0.703468C5.36375 0.523167 5.11921 0.421875 4.86422 0.421875C4.60924 0.421875 4.3647 0.523167 4.1844 0.703468C4.0041 0.883769 3.9028 1.12831 3.9028 1.38329V2.34471H1.01855C0.763564 2.34471 0.519023 2.446 0.338722 2.62631C0.158421 2.80661 0.0571289 3.05115 0.0571289 3.30613V16.766C0.0571289 17.5309 0.361005 18.2646 0.901908 18.8055C1.44281 19.3464 2.17643 19.6503 2.94139 19.6503H14.4784C15.2434 19.6503 15.977 19.3464 16.5179 18.8055C17.0588 18.2646 17.3627 17.5309 17.3627 16.766V3.30613C17.3627 3.05115 17.2614 2.80661 17.0811 2.62631C16.9008 2.446 16.6562 2.34471 16.4012 2.34471ZM15.4398 16.766C15.4398 17.021 15.3385 17.2655 15.1582 17.4458C14.9779 17.6261 14.7334 17.7274 14.4784 17.7274H2.94139C2.6864 17.7274 2.44186 17.6261 2.26156 17.4458C2.08126 17.2655 1.97997 17.021 1.97997 16.766V4.26755H3.9028V5.22897C3.9028 5.48395 4.0041 5.72849 4.1844 5.90879C4.3647 6.0891 4.60924 6.19039 4.86422 6.19039C5.11921 6.19039 5.36375 6.0891 5.54405 5.90879C5.72435 5.72849 5.82564 5.48395 5.82564 5.22897V4.26755H7.74848V5.22897C7.74848 5.48395 7.84977 5.72849 8.03007 5.90879C8.21037 6.0891 8.45491 6.19039 8.7099 6.19039C8.96488 6.19039 9.20942 6.0891 9.38972 5.90879C9.57002 5.72849 9.67132 5.48395 9.67132 5.22897V4.26755H11.5942V5.22897C11.5942 5.48395 11.6954 5.72849 11.8757 5.90879C12.056 6.0891 12.3006 6.19039 12.5556 6.19039C12.8106 6.19039 13.0551 6.0891 13.2354 5.90879C13.4157 5.72849 13.517 5.48395 13.517 5.22897V4.26755H15.4398V16.766Z" fill="currentColor" />
    </symbol>

    <symbol id="home" width="100%" height="100%" viewBox="0 0 20 22">
      <path d="M18.6719 6.86043L12.1823 1.17124C11.5874 0.63914 10.8173 0.344971 10.0191 0.344971C9.22099 0.344971 8.45085 0.63914 7.85594 1.17124L1.36637 6.86043C1.02282 7.16769 0.748667 7.5446 0.562169 7.96609C0.375672 8.38757 0.281107 8.84395 0.28477 9.30484V18.758C0.28477 19.6186 0.626631 20.4439 1.23515 21.0524C1.84366 21.6609 2.66899 22.0028 3.52956 22.0028H16.5087C17.3693 22.0028 18.1946 21.6609 18.8031 21.0524C19.4116 20.4439 19.7535 19.6186 19.7535 18.758V9.29402C19.7556 8.83495 19.6603 8.38066 19.4739 7.96115C19.2874 7.54165 19.0141 7.16648 18.6719 6.86043ZM12.1823 19.8396H7.85594V14.4316C7.85594 14.1447 7.9699 13.8696 8.17274 13.6668C8.37557 13.464 8.65068 13.35 8.93754 13.35H11.1007C11.3876 13.35 11.6627 13.464 11.8655 13.6668C12.0684 13.8696 12.1823 14.1447 12.1823 14.4316V19.8396ZM17.5903 18.758C17.5903 19.0448 17.4764 19.32 17.2735 19.5228C17.0707 19.7256 16.7956 19.8396 16.5087 19.8396H14.3455V14.4316C14.3455 13.571 14.0037 12.7457 13.3951 12.1372C12.7866 11.5287 11.9613 11.1868 11.1007 11.1868H8.93754C8.07697 11.1868 7.25164 11.5287 6.64313 12.1372C6.03461 12.7457 5.69275 13.571 5.69275 14.4316V19.8396H3.52956C3.2427 19.8396 2.96759 19.7256 2.76476 19.5228C2.56192 19.32 2.44796 19.0448 2.44796 18.758V9.29402C2.44816 9.14045 2.48105 8.98868 2.54446 8.84882C2.60787 8.70895 2.70033 8.58418 2.81571 8.48283L9.30528 2.80445C9.50266 2.63105 9.75641 2.53542 10.0191 2.53542C10.2819 2.53542 10.5356 2.63105 10.733 2.80445L17.2226 8.48283C17.3379 8.58418 17.4304 8.70895 17.4938 8.84882C17.5572 8.98868 17.5901 9.14045 17.5903 9.29402V18.758Z" fill="currentColor" />
    </symbol>

    <symbol id="message" width="100%" height="100%" viewBox="0 0 22 22">
      <path d="M11.1539 0.344971C9.73556 0.344971 8.33108 0.624734 7.02067 1.16829C5.71027 1.71184 4.5196 2.50854 3.51666 3.51289C1.49113 5.54128 0.353197 8.29236 0.353197 11.1609C0.343755 13.6585 1.20731 16.0806 2.79416 18.0074L0.634017 20.1706C0.484148 20.3227 0.382625 20.5159 0.342258 20.7257C0.301891 20.9355 0.324489 21.1526 0.407201 21.3496C0.49691 21.5442 0.642337 21.7077 0.825024 21.8194C1.00771 21.9311 1.21942 21.9859 1.43327 21.9769H11.1539C14.0185 21.9769 16.7657 20.8374 18.7912 18.809C20.8167 16.7806 21.9547 14.0295 21.9547 11.1609C21.9547 8.29236 20.8167 5.54128 18.7912 3.51289C16.7657 1.48451 14.0185 0.344971 11.1539 0.344971ZM11.1539 19.8137H4.03625L5.04072 18.8078C5.24188 18.6052 5.3548 18.331 5.3548 18.0453C5.3548 17.7595 5.24188 17.4854 5.04072 17.2828C3.62645 15.8681 2.74575 14.0061 2.54865 12.0141C2.35156 10.0221 2.85027 8.02323 3.95981 6.35813C5.06935 4.69303 6.72109 3.46468 8.6336 2.88237C10.5461 2.30005 12.6011 2.39979 14.4484 3.1646C16.2957 3.9294 17.8211 5.31196 18.7646 7.07671C19.7081 8.84146 20.0115 10.8792 19.6229 12.8428C19.2344 14.8064 18.178 16.5744 16.6337 17.8455C15.0895 19.1165 13.1529 19.8121 11.1539 19.8137Z" fill="currentColor" />
    </symbol>

    <symbol id="service" width="100%" height="100%" viewBox="0 0 31 21">
      <path d="M30.3725 18.4981L30.3738 18.4993C30.4667 18.5892 30.5408 18.6967 30.5917 18.8155C30.6427 18.9343 30.6694 19.062 30.6705 19.1913C30.6715 19.3205 30.6468 19.4487 30.5977 19.5683C30.5487 19.6879 30.4763 19.7965 30.3849 19.8878C30.2934 19.9792 30.1847 20.0514 30.065 20.1002C29.9454 20.1491 29.8172 20.1736 29.6879 20.1724C29.5587 20.1712 29.4309 20.1443 29.3122 20.0932C29.1935 20.0421 29.0861 19.9678 28.9964 19.8748L28.9964 19.8748L28.995 19.8734L25.1229 16.0013L25.0555 15.9338L24.9801 15.9923C23.2631 17.3251 21.1028 17.9535 18.9388 17.7495C16.7748 17.5455 14.7699 16.5246 13.3323 14.8944C11.8946 13.2643 11.1322 11.1475 11.2002 8.97498C11.2683 6.80249 12.1618 4.7376 13.6987 3.20067C15.2356 1.66373 17.3005 0.77028 19.473 0.7022C21.6455 0.63412 23.7623 1.39653 25.3925 2.83421C27.0226 4.2719 28.0436 6.2768 28.2476 8.44076C28.4515 10.6047 27.8232 12.7651 26.4904 14.4821L26.4319 14.5574L26.4993 14.6249L26.5004 14.6259L30.3725 18.4981ZM19.7412 15.8409C20.6076 15.8409 21.4656 15.6702 22.266 15.3387C23.0665 15.0071 23.7939 14.5211 24.4065 13.9085C25.0192 13.2958 25.5052 12.5685 25.8367 11.768C26.1683 10.9675 26.3389 10.1096 26.3389 9.24316C26.3389 8.37673 26.1683 7.51879 25.8367 6.71831C25.5052 5.91784 25.0192 5.19051 24.4065 4.57785C23.7939 3.9652 23.0665 3.47921 22.266 3.14764C21.4656 2.81608 20.6076 2.64542 19.7412 2.64542C17.9914 2.64542 16.3132 3.34054 15.0759 4.57785C13.8386 5.81517 13.1435 7.49333 13.1435 9.24316C13.1435 10.993 13.8386 12.6711 15.0759 13.9085C16.3132 15.1458 17.9914 15.8409 19.7412 15.8409Z" fill="currentColor" stroke="currentColor" stroke-width="0.216319" />
      <rect x="0.224126" y="0.698003" width="9.36121" height="2.37868" rx="1.18934" fill="currentColor" stroke="currentColor" stroke-width="0.216319" />
      <rect x="0.224126" y="8.74317" width="6.77527" height="2.37868" rx="1.18934" fill="currentColor" stroke="currentColor" stroke-width="0.216319" />
      <rect x="0.224126" y="16.7886" width="9.36121" height="2.37868" rx="1.18934" fill="currentColor" stroke="currentColor" stroke-width="0.216319" />
    </symbol>

    <symbol id="bell" width="100%" height="100%" viewBox="0 0 23 25">
      <path d="M21.1126 17.5964H20.0851V8.99775C20.0851 4.19696 16.179 0.290891 11.3783 0.290891C6.57746 0.290891 2.67139 4.19696 2.67139 8.99775V17.5964H1.64386C1.01587 17.5964 0.508176 18.1041 0.508176 18.7321C0.508176 19.3601 1.01587 19.8678 1.64386 19.8678H2.72547H6.99811C7.02717 22.2588 8.98042 24.1942 11.3783 24.1942C13.7761 24.1942 15.7293 22.2588 15.7584 19.8678H20.031H21.1126C21.7406 19.8678 22.2483 19.3601 22.2483 18.7321C22.2483 18.1041 21.7406 17.5964 21.1126 17.5964ZM11.3783 21.9228C10.2332 21.9228 9.29862 21.006 9.26984 19.8678H13.4867C13.4579 21.006 12.5233 21.9228 11.3783 21.9228ZM17.8137 17.5964H15.7046H7.05186H4.94277V8.99775C4.94277 5.44864 7.82914 2.56227 11.3783 2.56227C14.9274 2.56227 17.8137 5.44864 17.8137 8.99775V17.5964Z" fill="currentColor" stroke="currentColor" stroke-width="0.10816" />
    </symbol>

  </defs>
</svg>